<?xml version="1.0" encoding="utf-8"?>
<!-- Generator: Adobe Illustrator 16.0.0, SVG Export Plug-In . SVG Version: 6.00 Build 0)  -->
<!DOCTYPE svg PUBLIC "-//W3C//DTD SVG 1.1//EN" "http://www.w3.org/Graphics/SVG/1.1/DTD/svg11.dtd">
<svg version="1.1" id="Layer_1" xmlns="http://www.w3.org/2000/svg" xmlns:xlink="http://www.w3.org/1999/xlink" x="0px" y="0px"
	 width="260.792px" height="83.917px" viewBox="18.125 7.25 260.792 83.917" enable-background="new 18.125 7.25 260.792 83.917"
	 xml:space="preserve">
<rect id="_x3C_Slice_x3E__2_" x="11.129" fill="none" width="279.742" height="97"/>
<path opacity="0.75" enable-background="new    " d="M55.274,20.832c0,0,3.616-6.228,10.723-12.15c0,0,4.275,4.111,5.119,7.406
	c0,0,0.381,0.954,0.191,3.186c0,0-2.505-0.244-5.283,0.98C63.246,21.479,58.875,21.846,55.274,20.832z M39.529,15.051
	c-7.188,6.694-9.884,16.993,1.308,36.762c11.191,19.767,12.335,23.443,13.805,28.346c1.47,4.9,0.327,10.455,0.327,10.455
	s0.817-0.164,2.205-7.924c1.389-7.76-6.371-18.216-9.557-41.252C44.431,18.402,55.622,7.7,55.622,7.7S46.718,8.354,39.529,15.051z
	 M30.707,53.446c6.535,9.638,12.743,19.481,16.583,27.119c3.84,7.638,3.473,10.048,3.473,10.048s0.652-1.389,0.652-5.719
	c0-4.329-5.512-16.338-5.512-16.338c-3.023-7.023-6.454-11.271-13.805-25.077c-7.353-13.805-6.781-22.061-6.781-22.061
	C13.798,28.113,24.172,43.806,30.707,53.446z M21.477,59.545c2.396,6.48,17.072,18.325,21.851,24.002
	c4.779,5.68,4.86,7.08,4.86,7.08c-0.163-5.297-6.943-14.881-14.049-24.602C27.031,56.305,20.14,45.359,20.14,45.359
	C18.802,49.361,19.081,53.064,21.477,59.545z M65.452,39.395c-2.832,3.104-12.661,8.74-12.661,8.74s2.607,7.066,6.058,17.544
	c3.45,10.475,2.491,13.621,2.369,17.131c-0.123,3.514-1.755,7.803-1.755,7.803c2.327-3.287,4.268-7.066,5.666-10.538
	c1.398-3.472,0.276-5.575,0.012-9.067c-0.266-3.492,4.533-4.73,8.045-5.771c10.02-2.914,5.503-8.493,3.585-10.167
	c-1.92-1.675-0.624-2.646-0.01-3.196c0.612-0.551,1.511-1.205,1.796-1.675s0.266-0.919-0.284-1.389
	c-0.548-0.47-3.086-0.878-3.086-0.878s1.185-0.123,1.899-0.205s1.898-0.797,1.552-2.145c-0.347-1.348-0.919-2.736-0.612-3.983
	c0.306-1.245,2.655-2.511,3.941-4.593c0.271-0.44,0.294-1.23-0.354-1.714c-1.831-1.37-3.527-2.84-4.78-4.419
	c-1.027-1.293-2.383-1.669-2.383-1.669S68.283,36.291,65.452,39.395z"/>
<linearGradient id="SVGID_1_" gradientUnits="userSpaceOnUse" x1="337.1006" y1="-334.6255" x2="337.1006" y2="-407.1404" gradientTransform="matrix(0.8661 0 0 -0.8661 -242.1697 -270.4196)">
	<stop  offset="0" style="stop-color:#AA70E8"/>
	<stop  offset="1" style="stop-color:#46057F"/>
</linearGradient>
<path fill="url(#SVGID_1_)" d="M54.315,20.556c0,0,3.615-6.227,10.722-12.149c0,0,4.275,4.111,5.119,7.407
	c0,0,0.381,0.954,0.191,3.186c0,0-2.505-0.244-5.283,0.98C62.287,21.205,57.916,21.572,54.315,20.556z M38.571,14.776
	c-7.19,6.697-9.884,16.994,1.307,36.762c11.191,19.769,12.334,23.444,13.804,28.346c1.471,4.901,0.328,10.455,0.328,10.455
	s0.815-0.163,2.204-7.922c1.389-7.761-6.372-18.216-9.557-41.252c-3.185-23.037,8.006-33.738,8.006-33.738
	S45.758,8.08,38.571,14.776z M29.748,53.172c6.535,9.641,12.743,19.482,16.583,27.12s3.472,10.047,3.472,10.047
	s0.654-1.388,0.654-5.718c0-4.329-5.514-16.338-5.514-16.338c-3.023-7.024-6.454-11.271-13.805-25.078
	c-7.352-13.804-6.781-22.061-6.781-22.061C12.838,27.839,23.214,43.532,29.748,53.172z M20.518,59.271
	c2.396,6.48,17.073,18.325,21.851,24.002c4.779,5.678,4.859,7.08,4.859,7.08c-0.164-5.296-6.944-14.88-14.05-24.601
	c-7.106-9.723-13.997-20.668-13.997-20.668C17.843,49.088,18.121,52.791,20.518,59.271z M64.493,39.121
	c-2.833,3.104-12.662,8.741-12.662,8.741s2.608,7.067,6.059,17.542c3.45,10.478,2.492,13.623,2.369,17.135s-1.756,7.8-1.756,7.8
	c2.328-3.286,4.269-7.065,5.667-10.536c1.4-3.473,0.276-5.576,0.011-9.067c-0.267-3.493,4.533-4.733,8.046-5.772
	c10.02-2.915,5.503-8.493,3.584-10.168c-1.921-1.674-0.624-2.645-0.01-3.195c0.612-0.551,1.511-1.205,1.797-1.674
	c0.286-0.471,0.264-0.92-0.284-1.39c-0.548-0.469-3.087-0.88-3.087-0.88s1.186-0.122,1.9-0.203c0.714-0.082,1.898-0.795,1.552-2.145
	c-0.346-1.349-0.919-2.737-0.612-3.982c0.307-1.246,2.656-2.512,3.941-4.595c0.271-0.438,0.294-1.229-0.353-1.714
	c-1.832-1.369-3.527-2.84-4.781-4.419c-1.026-1.293-2.382-1.669-2.382-1.669S67.325,36.017,64.493,39.121z"/>
<path opacity="0.9" fill="#BE89F7" enable-background="new    " d="M55.209,19.915c0,0,4.727-6.953,9.762-10.893
	c0,0,5.001,3.974,5.07,9.146l-0.103,0.446c0,0-2.02-0.377-5.274,1.028c-3.256,1.405-6.167,1.234-9.695,0.754L55.209,19.915z"/>
<path fill="#BE89F7" d="M53.213,8.037c0,0-14.241,14.653-5.061,44.833c0,0-1.426,1.22-5.537,2.376c0,0-9.57-15.941-9.519-25.19
	C32.377,19.778,40.65,11.3,53.213,8.037z"/>
<path fill="#BE89F7" d="M73.742,29.028c0,0-5.506,13.248-20.854,21.743l-1.058-2.91c0,0,4.775-2.853,8.037-5.011
	c3.263-2.158,4.265-3.366,5.035-4.213s4.137-4.6,6.039-6.782c1.9-2.184,2.549-2.924,2.549-2.924S73.613,28.976,73.742,29.028z"/>
<path fill="#BE89F7" d="M38.082,56.708c0,0-13.978-20.281-14.208-34.334c0,0-9.377,5.728,2.595,24.022
	c5.344,8.734,7.399,11.51,7.399,11.51S35.272,58.182,38.082,56.708z"/>
<path fill="#BE89F7" d="M27.634,59.139l-8.36-13.154c0,0-1.207,6.398,1.61,12.539l0.497,1.268
	C21.381,59.79,22.563,60.133,27.634,59.139z"/>
<path fill="#2D0351" d="M92.26,27.469c0,3.021,0.083,4.336,0.452,4.706c0.328,0.329,0.863,0.473,2.466,0.473
	c1.089,0,1.994-0.02,2.486-0.617c0.267-0.328,0.473-0.843,0.534-1.233c0.021-0.164,0.063-0.267,0.186-0.267
	c0.102,0,0.124,0.082,0.124,0.307c0,0.226-0.144,1.459-0.308,2.055c-0.144,0.473-0.205,0.555-1.294,0.555
	c-1.48,0-2.548-0.042-3.412-0.062c-0.863-0.042-1.499-0.062-2.096-0.062c-0.083,0-0.432,0.02-0.843,0.02
	c-0.412,0.021-0.863,0.042-1.172,0.042c-0.226,0-0.329-0.042-0.329-0.164c0-0.062,0.042-0.124,0.165-0.124
	c0.186,0,0.431-0.042,0.617-0.083c0.411-0.083,0.514-0.534,0.596-1.131c0.103-0.863,0.103-2.487,0.103-4.458v-3.617
	c0-3.206,0-3.781-0.042-4.439c-0.042-0.699-0.205-1.027-0.884-1.171c-0.164-0.041-0.514-0.061-0.699-0.061
	c-0.083,0-0.164-0.042-0.164-0.124c0-0.124,0.103-0.165,0.329-0.165c0.924,0,2.22,0.062,2.322,0.062c0.103,0,1.604-0.062,2.22-0.062
	c0.227,0,0.329,0.042,0.329,0.165c0,0.082-0.083,0.124-0.164,0.124c-0.145,0-0.432,0.02-0.678,0.061
	c-0.596,0.103-0.76,0.452-0.801,1.171c-0.042,0.658-0.042,1.233-0.042,4.439L92.26,27.469L92.26,27.469z"/>
<path fill="#2D0351" d="M102.23,25.229c0-2.712,0-3.205-0.042-3.76c-0.042-0.596-0.144-0.884-0.739-0.966
	c-0.144-0.021-0.451-0.042-0.616-0.042c-0.063,0-0.145-0.083-0.145-0.144c0-0.102,0.083-0.144,0.289-0.144
	c0.822,0,1.993,0.042,2.096,0.042c0.124,0,3.904,0.02,4.315,0c0.349-0.021,0.678-0.083,0.822-0.103
	c0.083-0.02,0.164-0.083,0.247-0.083c0.061,0,0.082,0.083,0.082,0.164c0,0.124-0.103,0.329-0.144,0.822
	c-0.02,0.165-0.061,0.946-0.102,1.151c-0.02,0.083-0.083,0.185-0.165,0.185c-0.102,0-0.144-0.082-0.144-0.226
	c0-0.124-0.02-0.411-0.102-0.617c-0.123-0.288-0.308-0.411-1.295-0.533c-0.307-0.042-2.403-0.062-2.609-0.062
	c-0.082,0-0.102,0.062-0.102,0.184v4.747c0,0.124,0,0.186,0.102,0.186c0.226,0,2.609,0,3.02-0.042
	c0.431-0.042,0.699-0.062,0.884-0.247c0.124-0.123,0.205-0.226,0.268-0.226s0.102,0.042,0.102,0.144
	c0,0.103-0.102,0.391-0.144,0.965c-0.041,0.349-0.083,1.007-0.083,1.131c0,0.144-0.042,0.328-0.164,0.328
	c-0.082,0-0.124-0.062-0.124-0.164c0-0.164,0-0.349-0.083-0.575c-0.062-0.247-0.227-0.452-0.925-0.534
	c-0.492-0.062-2.424-0.083-2.732-0.083c-0.103,0-0.123,0.062-0.123,0.123v1.46c0,0.596-0.021,2.63,0,2.979
	c0.041,1.172,0.369,1.397,2.156,1.397c0.474,0,1.336,0,1.809-0.185c0.474-0.206,0.72-0.514,0.822-1.212
	c0.042-0.205,0.083-0.268,0.186-0.268c0.102,0,0.124,0.144,0.124,0.268c0,0.123-0.144,1.315-0.246,1.685
	c-0.124,0.451-0.309,0.451-1.007,0.451c-1.356,0-2.404-0.041-3.144-0.061c-0.761-0.042-1.233-0.042-1.5-0.042
	c-0.042,0-0.391,0-0.781,0.02c-0.348,0.021-0.759,0.042-1.047,0.042c-0.186,0-0.289-0.042-0.289-0.144
	c0-0.062,0.042-0.144,0.144-0.144c0.165,0,0.391-0.062,0.555-0.083c0.349-0.062,0.391-0.411,0.473-0.925
	c0.103-0.719,0.103-2.096,0.103-3.78v-3.083H102.23z"/>
<path fill="#2D0351" d="M118.671,19.927c4.068,0,7.151,2.487,7.151,6.556c0,3.905-2.897,7.13-7.254,7.13
	c-4.952,0-7.069-3.72-7.069-6.864C111.5,23.935,113.678,19.927,118.671,19.927z M119.082,32.894c1.624,0,4.89-0.863,4.89-5.918
	c0-4.192-2.547-6.391-5.404-6.391c-3.02,0-5.198,1.891-5.198,5.691C113.37,30.346,115.814,32.894,119.082,32.894z"/>
<path fill="#2D0351" d="M130.368,31.003c0.042,1.439,0.205,1.87,0.699,1.994c0.329,0.083,0.74,0.104,0.904,0.104
	c0.083,0,0.144,0.062,0.144,0.144c0,0.102-0.124,0.144-0.328,0.144c-1.029,0-1.748-0.062-1.911-0.062
	c-0.164,0-0.925,0.062-1.748,0.062c-0.185,0-0.288-0.02-0.288-0.144c0-0.082,0.063-0.144,0.144-0.144
	c0.144,0,0.474-0.021,0.739-0.104c0.452-0.124,0.514-0.596,0.514-2.178V20.811c0-0.699,0.103-0.884,0.247-0.884
	c0.205,0,0.514,0.349,0.699,0.534c0.288,0.288,2.918,3.083,5.713,5.959c1.787,1.85,3.719,3.925,4.274,4.5l-0.185-8.753
	c-0.02-1.131-0.124-1.521-0.678-1.624c-0.328-0.061-0.74-0.082-0.883-0.082c-0.124,0-0.144-0.102-0.144-0.164
	c0-0.103,0.144-0.124,0.348-0.124c0.822,0,1.685,0.042,1.892,0.042c0.205,0,0.801-0.042,1.541-0.042c0.185,0,0.328,0.02,0.328,0.124
	c0,0.062-0.082,0.164-0.205,0.164c-0.083,0-0.227,0-0.431,0.042c-0.596,0.124-0.637,0.473-0.637,1.521l-0.041,10.233
	c0,1.15-0.02,1.253-0.144,1.253c-0.186,0-0.371-0.144-1.377-1.069c-0.186-0.164-2.795-2.732-4.707-4.726
	c-2.096-2.199-4.131-4.336-4.686-4.953L130.368,31.003z"/>
<path fill="#2D0351" d="M146.318,25.229c0-2.712,0-3.205-0.042-3.76c-0.042-0.596-0.144-0.884-0.74-0.966
	c-0.144-0.021-0.451-0.042-0.616-0.042c-0.062,0-0.145-0.083-0.145-0.144c0-0.102,0.083-0.144,0.289-0.144
	c0.822,0,1.993,0.042,2.096,0.042c0.124,0,3.904,0.02,4.315,0c0.349-0.021,0.678-0.083,0.821-0.103
	c0.082-0.02,0.164-0.083,0.247-0.083c0.062,0,0.081,0.083,0.081,0.164c0,0.124-0.102,0.329-0.143,0.822
	c-0.021,0.165-0.061,0.946-0.104,1.151c-0.02,0.083-0.082,0.185-0.164,0.185c-0.102,0-0.144-0.082-0.144-0.226
	c0-0.124-0.021-0.411-0.103-0.617c-0.123-0.288-0.309-0.411-1.294-0.533c-0.308-0.042-2.403-0.062-2.609-0.062
	c-0.083,0-0.102,0.062-0.102,0.184v4.747c0,0.124,0,0.186,0.102,0.186c0.226,0,2.609,0,3.02-0.042
	c0.431-0.042,0.698-0.062,0.884-0.247c0.124-0.123,0.205-0.226,0.268-0.226s0.103,0.042,0.103,0.144
	c0,0.103-0.103,0.391-0.144,0.965c-0.041,0.349-0.082,1.007-0.082,1.131c0,0.144-0.042,0.328-0.164,0.328
	c-0.082,0-0.124-0.062-0.124-0.164c0-0.164,0-0.349-0.082-0.575c-0.062-0.247-0.228-0.452-0.925-0.534
	c-0.492-0.062-2.424-0.083-2.732-0.083c-0.102,0-0.123,0.062-0.123,0.123v1.46c0,0.596-0.021,2.63,0,2.979
	c0.041,1.172,0.369,1.397,2.156,1.397c0.474,0,1.336,0,1.809-0.185c0.474-0.206,0.72-0.514,0.822-1.212
	c0.041-0.205,0.082-0.268,0.185-0.268s0.124,0.144,0.124,0.268c0,0.123-0.144,1.315-0.246,1.685
	c-0.123,0.451-0.309,0.451-1.007,0.451c-1.356,0-2.404-0.041-3.144-0.061c-0.761-0.042-1.233-0.042-1.5-0.042
	c-0.042,0-0.391,0-0.781,0.02c-0.348,0.021-0.76,0.042-1.047,0.042c-0.187,0-0.289-0.042-0.289-0.144
	c0-0.062,0.042-0.144,0.144-0.144c0.165,0,0.391-0.062,0.555-0.083c0.349-0.062,0.391-0.411,0.473-0.925
	c0.103-0.719,0.103-2.096,0.103-3.78v-3.083H146.318z"/>
<path fill="#2D0351" d="M159.287,28.353c0,2.569,0.04,3.617,0.368,3.925c0.288,0.287,0.987,0.411,2.405,0.411
	c0.945,0,1.746-0.02,2.178-0.534c0.227-0.268,0.37-0.637,0.432-0.987c0.021-0.124,0.082-0.226,0.186-0.226
	c0.082,0,0.123,0.082,0.123,0.267c0,0.185-0.123,1.233-0.268,1.748c-0.123,0.412-0.185,0.472-1.15,0.472
	c-1.295,0-2.301-0.02-3.144-0.061c-0.822-0.021-1.438-0.042-1.974-0.042c-0.082,0-0.389,0-0.739,0.02
	c-0.37,0.021-0.759,0.042-1.047,0.042c-0.187,0-0.288-0.042-0.288-0.144c0-0.062,0.041-0.144,0.144-0.144
	c0.165,0,0.391-0.042,0.556-0.083c0.348-0.083,0.391-0.411,0.473-0.925c0.103-0.719,0.103-2.096,0.103-3.781v-3.083
	c0-2.712,0-3.205-0.042-3.76c-0.041-0.596-0.143-0.884-0.739-0.966c-0.144-0.021-0.451-0.042-0.616-0.042
	c-0.063,0-0.145-0.083-0.145-0.144c0-0.102,0.082-0.144,0.289-0.144c0.822,0,1.952,0.042,2.055,0.042
	c0.082,0,1.438-0.042,1.993-0.042c0.185,0,0.288,0.042,0.288,0.144c0,0.062-0.083,0.124-0.145,0.124
	c-0.123,0-0.391,0.02-0.596,0.041c-0.534,0.103-0.637,0.371-0.678,0.987c-0.021,0.555-0.021,1.048-0.021,3.761L159.287,28.353
	L159.287,28.353z"/>
<path fill="#2D0351" d="M167.036,31.909c0-0.576,0.739-1.11,1.274-1.11c0.102,0,0.163,0.062,0.369,0.391
	c0.268,0.412,0.35,0.699,0.35,0.884c0,0.164-0.104,0.534-0.205,0.801c-0.205,0.473-0.74,1.562-1.316,2.199
	c-0.082,0.103-0.184,0.186-0.268,0.186c-0.061,0-0.144-0.062-0.144-0.144c0-0.082,0.103-0.205,0.144-0.288
	c0.35-0.596,0.494-1.068,0.494-1.459C167.734,32.422,167.036,32.155,167.036,31.909z"/>
<path fill="#2D0351" d="M190.69,28.147c0-1.665-0.103-1.891-0.925-2.116c-0.164-0.042-0.514-0.061-0.699-0.061
	c-0.082,0-0.164-0.042-0.164-0.124c0-0.124,0.104-0.164,0.33-0.164c0.924,0,2.219,0.061,2.321,0.061s1.397-0.061,2.015-0.061
	c0.225,0,0.328,0.041,0.328,0.164c0,0.082-0.082,0.124-0.164,0.124c-0.144,0-0.268,0.02-0.514,0.061
	c-0.556,0.103-0.719,0.452-0.76,1.172c-0.041,0.658-0.041,1.274-0.041,2.137v2.302c0,0.924-0.021,0.965-0.269,1.109
	c-1.315,0.699-3.165,0.924-4.356,0.924c-1.561,0-4.479-0.205-6.762-2.199c-1.252-1.089-2.444-3.288-2.444-5.856
	c0-3.289,1.603-5.61,3.432-6.761c1.851-1.151,3.884-1.295,5.468-1.295c1.293,0,2.754,0.268,3.144,0.349
	c0.431,0.103,1.151,0.185,1.665,0.205c0.205,0.021,0.245,0.103,0.245,0.186c0,0.288-0.144,0.862-0.144,2.917
	c0,0.329-0.041,0.432-0.185,0.432c-0.103,0-0.124-0.123-0.144-0.308c-0.02-0.288-0.124-0.863-0.432-1.356
	c-0.514-0.78-2.179-1.665-4.829-1.665c-1.294,0-2.835,0.124-4.397,1.356c-1.191,0.946-2.035,2.815-2.035,5.219
	c0,2.898,1.46,4.994,2.179,5.693c1.624,1.582,3.493,2.198,5.384,2.198c0.74,0,1.809-0.123,2.344-0.432
	c0.268-0.144,0.41-0.37,0.41-0.719L190.69,28.147L190.69,28.147z"/>
<path fill="#2D0351" d="M198.174,25.229c0-2.712,0-3.205-0.041-3.76c-0.04-0.596-0.143-0.884-0.739-0.966
	c-0.144-0.021-0.452-0.042-0.616-0.042c-0.061,0-0.145-0.083-0.145-0.144c0-0.102,0.084-0.144,0.288-0.144
	c0.821,0,1.993,0.042,2.096,0.042c0.124,0,3.905,0.02,4.315,0c0.35-0.021,0.678-0.083,0.822-0.103
	c0.082-0.02,0.164-0.083,0.246-0.083c0.063,0,0.083,0.083,0.083,0.164c0,0.124-0.103,0.329-0.144,0.822
	c-0.02,0.165-0.063,0.946-0.104,1.151c-0.02,0.083-0.082,0.185-0.164,0.185c-0.103,0-0.143-0.082-0.143-0.226
	c0-0.124-0.021-0.411-0.104-0.617c-0.124-0.288-0.308-0.411-1.294-0.533c-0.309-0.042-2.405-0.062-2.61-0.062
	c-0.084,0-0.104,0.062-0.104,0.184v4.747c0,0.124,0,0.186,0.104,0.186c0.227,0,2.61,0,3.021-0.042
	c0.432-0.042,0.699-0.062,0.884-0.247c0.123-0.123,0.205-0.226,0.268-0.226s0.104,0.042,0.104,0.144
	c0,0.103-0.104,0.391-0.145,0.965c-0.041,0.349-0.083,1.007-0.083,1.131c0,0.144-0.04,0.328-0.163,0.328
	c-0.084,0-0.125-0.062-0.125-0.164c0-0.164,0-0.349-0.082-0.575c-0.061-0.247-0.226-0.452-0.924-0.534
	c-0.494-0.062-2.426-0.083-2.733-0.083c-0.103,0-0.124,0.062-0.124,0.123v1.46c0,0.596-0.02,2.63,0,2.979
	c0.042,1.172,0.371,1.397,2.158,1.397c0.473,0,1.335,0,1.809-0.185c0.473-0.206,0.719-0.514,0.822-1.212
	c0.041-0.205,0.081-0.268,0.184-0.268c0.104,0,0.125,0.144,0.125,0.268c0,0.123-0.145,1.315-0.248,1.685
	c-0.123,0.451-0.307,0.451-1.006,0.451c-1.355,0-2.404-0.041-3.145-0.061c-0.76-0.042-1.233-0.042-1.5-0.042
	c-0.041,0-0.39,0-0.779,0.02c-0.35,0.021-0.762,0.042-1.049,0.042c-0.185,0-0.287-0.042-0.287-0.144c0-0.062,0.04-0.144,0.143-0.144
	c0.164,0,0.391-0.062,0.556-0.083c0.349-0.062,0.391-0.411,0.474-0.925c0.102-0.719,0.102-2.096,0.102-3.78v-3.083H198.174z"/>
<path fill="#2D0351" d="M210.26,31.003c0.041,1.439,0.205,1.87,0.699,1.994c0.328,0.083,0.74,0.104,0.903,0.104
	c0.083,0,0.144,0.062,0.144,0.144c0,0.102-0.123,0.144-0.328,0.144c-1.027,0-1.746-0.062-1.911-0.062
	c-0.164,0-0.925,0.062-1.747,0.062c-0.186,0-0.287-0.02-0.287-0.144c0-0.082,0.061-0.144,0.144-0.144
	c0.144,0,0.473-0.021,0.739-0.104c0.451-0.124,0.514-0.596,0.514-2.178V20.811c0-0.699,0.102-0.884,0.246-0.884
	c0.206,0,0.514,0.349,0.699,0.534c0.288,0.288,2.918,3.083,5.714,5.959c1.786,1.85,3.72,3.925,4.274,4.5l-0.186-8.753
	c-0.02-1.131-0.124-1.521-0.678-1.624c-0.328-0.061-0.74-0.082-0.884-0.082c-0.124,0-0.144-0.102-0.144-0.164
	c0-0.103,0.144-0.124,0.349-0.124c0.821,0,1.685,0.042,1.891,0.042s0.802-0.042,1.541-0.042c0.185,0,0.329,0.02,0.329,0.124
	c0,0.062-0.082,0.164-0.205,0.164c-0.082,0-0.227,0-0.432,0.042c-0.596,0.124-0.637,0.473-0.637,1.521l-0.041,10.233
	c0,1.15-0.021,1.253-0.145,1.253c-0.184,0-0.369-0.144-1.377-1.069c-0.184-0.164-2.795-2.732-4.706-4.726
	c-2.096-2.199-4.131-4.336-4.686-4.953L210.26,31.003z"/>
<path fill="#2D0351" d="M230.566,28.312c0,1.685,0,3.062,0.082,3.78c0.062,0.515,0.144,0.843,0.699,0.925
	c0.246,0.041,0.658,0.083,0.821,0.083c0.124,0,0.144,0.082,0.144,0.144c0,0.083-0.082,0.144-0.287,0.144
	c-0.986,0-2.138-0.062-2.24-0.062c-0.082,0-1.336,0.062-1.87,0.062c-0.204,0-0.288-0.042-0.288-0.144
	c0-0.062,0.042-0.124,0.145-0.124c0.164,0,0.37-0.042,0.534-0.083c0.37-0.082,0.473-0.431,0.534-0.946
	c0.083-0.719,0.083-2.096,0.083-3.78v-7.335l-2.61,0.041c-1.131,0.02-1.563,0.144-1.829,0.555c-0.205,0.308-0.226,0.431-0.288,0.555
	c-0.041,0.144-0.102,0.165-0.185,0.165c-0.04,0-0.124-0.042-0.124-0.144c0-0.185,0.371-1.748,0.391-1.892
	c0.041-0.102,0.124-0.329,0.186-0.329c0.123,0,0.309,0.145,0.801,0.206c0.515,0.062,1.213,0.083,1.419,0.083h6.823
	c0.596,0,1.006-0.042,1.293-0.083c0.268-0.041,0.432-0.083,0.516-0.083c0.082,0,0.082,0.103,0.082,0.206
	c0,0.534-0.063,1.788-0.063,1.994c0,0.144-0.082,0.226-0.163,0.226c-0.083,0-0.124-0.062-0.144-0.308l-0.021-0.186
	c-0.061-0.534-0.451-0.924-2.178-0.965l-2.26-0.041v7.336H230.566z"/>
<path fill="#2D0351" d="M240.803,28.312c0,1.685,0,3.062,0.082,3.78c0.061,0.515,0.123,0.843,0.656,0.925
	c0.268,0.041,0.658,0.083,0.822,0.083c0.104,0,0.145,0.082,0.145,0.144c0,0.083-0.082,0.144-0.288,0.144
	c-1.007,0-2.179-0.062-2.259-0.062c-0.104,0-1.234,0.062-1.788,0.062c-0.186,0-0.288-0.042-0.288-0.144
	c0-0.062,0.041-0.144,0.145-0.144c0.163,0,0.391-0.042,0.555-0.083c0.35-0.083,0.412-0.411,0.473-0.925
	c0.082-0.719,0.103-2.096,0.103-3.78v-3.083c0-2.712,0-3.205-0.041-3.76c-0.042-0.596-0.185-0.864-0.575-0.946
	c-0.205-0.042-0.432-0.062-0.556-0.062c-0.082,0-0.144-0.082-0.144-0.144c0-0.103,0.082-0.144,0.287-0.144
	c0.596,0,1.727,0.042,1.83,0.042c0.082,0,1.252-0.042,1.808-0.042c0.204,0,0.288,0.042,0.288,0.144c0,0.062-0.084,0.144-0.145,0.144
	c-0.123,0-0.246,0-0.451,0.042c-0.494,0.102-0.597,0.349-0.637,0.966c-0.021,0.555-0.021,1.048-0.021,3.76L240.803,28.312
	L240.803,28.312z"/>
<path fill="#2D0351" d="M248.387,28.353c0,2.569,0.041,3.617,0.369,3.925c0.287,0.287,0.986,0.411,2.404,0.411
	c0.945,0,1.747-0.02,2.178-0.534c0.228-0.268,0.371-0.637,0.432-0.987c0.021-0.124,0.084-0.226,0.186-0.226
	c0.082,0,0.124,0.082,0.124,0.267c0,0.185-0.124,1.233-0.268,1.748c-0.123,0.412-0.186,0.472-1.151,0.472
	c-1.294,0-2.301-0.02-3.144-0.061c-0.822-0.021-1.438-0.042-1.974-0.042c-0.081,0-0.389,0-0.739,0.02
	c-0.37,0.021-0.761,0.042-1.048,0.042c-0.186,0-0.288-0.042-0.288-0.144c0-0.062,0.042-0.144,0.144-0.144
	c0.164,0,0.391-0.042,0.555-0.083c0.351-0.083,0.391-0.411,0.475-0.925c0.102-0.719,0.102-2.096,0.102-3.781v-3.083
	c0-2.712,0-3.205-0.041-3.76c-0.041-0.596-0.145-0.884-0.74-0.966c-0.144-0.021-0.451-0.042-0.616-0.042
	c-0.062,0-0.144-0.083-0.144-0.144c0-0.102,0.082-0.144,0.287-0.144c0.822,0,1.952,0.042,2.055,0.042
	c0.083,0,1.439-0.042,1.994-0.042c0.185,0,0.287,0.042,0.287,0.144c0,0.062-0.082,0.124-0.143,0.124
	c-0.125,0-0.391,0.02-0.597,0.041c-0.534,0.103-0.636,0.371-0.678,0.987c-0.021,0.555-0.021,1.048-0.021,3.761V28.353
	L248.387,28.353z"/>
<path fill="#2D0351" d="M259.383,28.312c0,1.685,0,3.062,0.083,3.78c0.061,0.515,0.123,0.843,0.657,0.925
	c0.268,0.041,0.658,0.083,0.822,0.083c0.102,0,0.144,0.082,0.144,0.144c0,0.083-0.082,0.144-0.288,0.144
	c-1.007,0-2.178-0.062-2.26-0.062c-0.104,0-1.233,0.062-1.787,0.062c-0.186,0-0.288-0.042-0.288-0.144
	c0-0.062,0.04-0.144,0.144-0.144c0.164,0,0.391-0.042,0.555-0.083c0.35-0.083,0.412-0.411,0.474-0.925
	c0.082-0.719,0.103-2.096,0.103-3.78v-3.083c0-2.712,0-3.205-0.041-3.76c-0.041-0.596-0.186-0.864-0.575-0.946
	c-0.206-0.042-0.431-0.062-0.556-0.062c-0.082,0-0.143-0.082-0.143-0.144c0-0.103,0.08-0.144,0.287-0.144
	c0.596,0,1.725,0.042,1.828,0.042c0.083,0,1.253-0.042,1.809-0.042c0.205,0,0.287,0.042,0.287,0.144
	c0,0.062-0.082,0.144-0.144,0.144c-0.124,0-0.247,0-0.451,0.042c-0.493,0.102-0.596,0.349-0.638,0.966
	c-0.02,0.555-0.02,1.048-0.02,3.76v3.083H259.383z"/>
<path fill="#2D0351" d="M266.084,31.003c0.041,1.439,0.205,1.87,0.699,1.994c0.328,0.083,0.738,0.104,0.903,0.104
	c0.083,0,0.144,0.062,0.144,0.144c0,0.102-0.123,0.144-0.328,0.144c-1.029,0-1.748-0.062-1.911-0.062s-0.925,0.062-1.747,0.062
	c-0.186,0-0.288-0.02-0.288-0.144c0-0.082,0.062-0.144,0.144-0.144c0.144,0,0.474-0.021,0.74-0.104
	c0.451-0.124,0.514-0.596,0.514-2.178V20.811c0-0.699,0.103-0.884,0.246-0.884c0.205,0,0.515,0.349,0.699,0.534
	c0.287,0.288,2.918,3.083,5.713,5.959c1.787,1.85,3.719,3.925,4.274,4.5l-0.185-8.753c-0.02-1.131-0.123-1.521-0.678-1.624
	c-0.328-0.061-0.74-0.082-0.884-0.082c-0.124,0-0.144-0.102-0.144-0.164c0-0.103,0.144-0.124,0.348-0.124
	c0.822,0,1.686,0.042,1.893,0.042c0.203,0,0.801-0.042,1.54-0.042c0.185,0,0.328,0.02,0.328,0.124c0,0.062-0.081,0.164-0.204,0.164
	c-0.084,0-0.227,0-0.432,0.042c-0.596,0.124-0.637,0.473-0.637,1.521l-0.041,10.233c0,1.15-0.02,1.253-0.145,1.253
	c-0.185,0-0.37-0.144-1.377-1.069c-0.186-0.164-2.795-2.732-4.705-4.726c-2.097-2.199-4.132-4.336-4.686-4.953L266.084,31.003z"/>
<path fill="#2D0351" d="M87.903,53.798c0-2.403,1.541-4.007,3.145-4.952c-0.761-1.069-1.008-1.912-1.008-2.835
	c0-1.624,1.665-3.781,4.418-3.781c1.049,0,1.931,0.205,2.486,0.514c0.247,0.144,0.268,0.268,0.268,0.514
	c0,0.617-0.082,2.055-0.144,2.363c-0.061,0.309-0.124,0.349-0.205,0.349c-0.103,0-0.124-0.082-0.124-0.39
	c0-0.534-0.124-1.212-0.638-1.748c-0.451-0.472-1.15-0.904-2.055-0.904c-1.232,0-2.609,0.76-2.609,2.692
	c0,1.603,1.109,2.939,3.247,5.26c0.699,0.761,3.226,3.123,3.883,3.679c0.575-0.781,1.048-2.158,1.048-3.411
	c0-0.308-0.082-0.698-0.39-1.007c-0.268-0.268-0.699-0.328-1.007-0.328c-0.124,0-0.246-0.042-0.246-0.145s0.164-0.144,0.328-0.144
	c0.493,0,1.315,0.021,2.466,0.144c0.308,0.041,0.37,0.205,0.37,0.412c0,1.664-1.131,3.739-2.035,4.85
	c1.355,1.15,2.26,1.705,2.835,2.034c0.658,0.391,1.706,0.802,2.446,0.802c0.184,0,0.287,0.021,0.287,0.145
	c0,0.082-0.164,0.144-0.349,0.144h-2.014c-1.521,0-2.014-0.144-4.275-1.932c-0.472,0.474-2.096,2.22-5.138,2.22
	C89.301,58.34,87.903,55.586,87.903,53.798z M97.5,55.73c-1.15-0.945-3.185-2.898-3.719-3.474c-0.534-0.575-1.85-2.034-2.425-2.876
	c-1.069,0.699-1.85,1.809-1.85,3.451c0,2.57,1.808,4.419,4.109,4.419C95.527,57.251,96.801,56.449,97.5,55.73z"/>
<path fill="#2D0351" d="M128.431,55.402c0.083,0.739,0.227,1.891,1.11,2.178c0.596,0.186,1.13,0.186,1.335,0.186
	c0.103,0,0.164,0.02,0.164,0.102c0,0.124-0.185,0.186-0.431,0.186c-0.451,0-2.671-0.062-3.433-0.124
	c-0.472-0.04-0.575-0.103-0.575-0.205c0-0.082,0.042-0.124,0.144-0.144c0.103-0.02,0.124-0.37,0.083-0.74l-0.986-10.603h-0.063
	l-5.034,10.687c-0.432,0.904-0.494,1.088-0.678,1.088c-0.144,0-0.247-0.205-0.638-0.944c-0.533-1.007-2.3-4.563-2.403-4.769
	c-0.184-0.37-2.486-5.301-2.712-5.856h-0.082l-0.822,9.535c-0.02,0.329-0.02,0.699-0.02,1.048c0,0.309,0.225,0.575,0.533,0.637
	c0.349,0.082,0.657,0.104,0.78,0.104c0.083,0,0.165,0.041,0.165,0.102c0,0.145-0.124,0.186-0.37,0.186
	c-0.761,0-1.748-0.062-1.912-0.062c-0.185,0-1.171,0.062-1.726,0.062c-0.205,0-0.349-0.041-0.349-0.186
	c0-0.061,0.103-0.102,0.205-0.102c0.164,0,0.308,0,0.617-0.063c0.678-0.123,0.74-0.924,0.822-1.705l1.479-13.398
	c0.021-0.227,0.102-0.371,0.226-0.371c0.124,0,0.205,0.083,0.307,0.309l6.29,12.926l6.042-12.905
	c0.083-0.185,0.164-0.329,0.309-0.329c0.144,0,0.204,0.165,0.246,0.556L128.431,55.402z"/>
<path fill="#2D0351" d="M137.457,45.188c0.226-0.575,0.308-0.678,0.432-0.678c0.185,0,0.247,0.247,0.431,0.637
	c0.329,0.74,3.227,7.953,4.336,10.604c0.657,1.562,1.151,1.786,1.541,1.91c0.268,0.083,0.535,0.103,0.72,0.103
	c0.103,0,0.226,0.041,0.226,0.145c0,0.102-0.205,0.144-0.411,0.144c-0.268,0-1.603,0-2.856-0.042c-0.35-0.02-0.637-0.02-0.637-0.123
	c0-0.082,0.042-0.082,0.124-0.123c0.103-0.041,0.288-0.186,0.164-0.473l-1.623-4.008c-0.042-0.082-0.062-0.102-0.164-0.102h-4.172
	c-0.081,0-0.144,0.04-0.184,0.143l-1.028,2.795c-0.165,0.432-0.268,0.863-0.268,1.172c0,0.35,0.309,0.473,0.617,0.473h0.164
	c0.144,0,0.186,0.063,0.186,0.145c0,0.102-0.102,0.144-0.268,0.144c-0.432,0-1.419-0.062-1.623-0.062
	c-0.186,0-1.089,0.062-1.829,0.062c-0.227,0-0.35-0.042-0.35-0.144c0-0.082,0.083-0.145,0.164-0.145c0.124,0,0.391-0.02,0.535-0.041
	c0.822-0.102,1.172-0.719,1.521-1.604L137.457,45.188z M139.471,52.463c0.083,0,0.083-0.041,0.062-0.125l-1.788-4.787
	c-0.103-0.268-0.205-0.268-0.307,0l-1.686,4.787c-0.02,0.084,0,0.125,0.062,0.125H139.471z"/>
<path fill="#2D0351" d="M147.529,49.894c0-2.712,0-3.206-0.041-3.761c-0.042-0.596-0.144-0.884-0.741-0.965
	c-0.144-0.021-0.451-0.042-0.616-0.042c-0.062,0-0.144-0.083-0.144-0.144c0-0.102,0.082-0.144,0.287-0.144
	c0.822,0,2.036,0.042,2.138,0.042c0.186,0,1.706-0.042,2.26-0.042c1.151,0,2.424,0.102,3.37,0.76
	c0.451,0.329,1.254,1.172,1.254,2.383c0,1.295-0.535,2.548-2.221,3.988c1.48,1.85,2.734,3.433,3.781,4.521
	c0.967,0.987,1.563,1.151,2.014,1.213c0.35,0.061,0.535,0.061,0.637,0.061c0.103,0,0.165,0.083,0.165,0.145
	c0,0.102-0.103,0.144-0.433,0.144h-1.13c-1.028,0-1.479-0.103-1.931-0.349c-0.781-0.412-1.439-1.254-2.467-2.568
	c-0.761-0.946-1.563-2.076-1.953-2.549c-0.082-0.082-0.122-0.104-0.245-0.104l-2.302-0.04c-0.082,0-0.124,0.04-0.124,0.144v0.412
	c0,1.684,0,3.041,0.083,3.76c0.061,0.515,0.164,0.843,0.719,0.926c0.247,0.04,0.637,0.082,0.802,0.082
	c0.124,0,0.144,0.082,0.144,0.144c0,0.082-0.083,0.144-0.288,0.144c-0.986,0-2.138-0.062-2.22-0.062
	c-0.02,0-1.233,0.062-1.788,0.062c-0.186,0-0.288-0.041-0.288-0.144c0-0.062,0.041-0.144,0.144-0.144
	c0.164,0,0.391-0.042,0.555-0.082c0.349-0.084,0.391-0.412,0.472-0.926c0.103-0.719,0.103-2.096,0.103-3.78L147.529,49.894
	L147.529,49.894z M149.09,51.373c0,0.103,0.042,0.164,0.124,0.227c0.268,0.145,1.192,0.268,1.994,0.268
	c0.433,0,0.924-0.021,1.356-0.309c0.616-0.411,1.088-1.335,1.088-2.671c0-2.178-1.19-3.432-3.122-3.432
	c-0.535,0-1.11,0.062-1.296,0.103c-0.082,0.042-0.144,0.103-0.144,0.205L149.09,51.373L149.09,51.373z"/>
<path fill="#2D0351" d="M165.821,59.387c1.274,0.125,2.056,0.617,2.056,1.46c0,0.802-0.762,1.397-1.461,1.686
	c-0.555,0.245-1.213,0.37-1.604,0.37c-0.144,0-0.268-0.063-0.268-0.164c0-0.186,0.186-0.205,0.412-0.227
	c0.719-0.082,1.521-0.514,1.521-1.254c0-0.596-0.268-1.15-1.479-1.499c-0.227-0.062-0.309-0.103-0.309-0.185
	c0-0.063,0.083-0.145,0.268-0.288l1.316-1.069c-1.932-0.205-3.35-0.821-4.5-1.808c-1.768-1.521-2.198-3.515-2.198-5.179
	c0-1.172,0.431-3.205,2.033-4.768c1.09-1.048,2.733-1.87,5.507-1.87c0.719,0,1.748,0.042,2.631,0.185
	c0.678,0.103,1.254,0.268,1.85,0.288c0.186,0,0.227,0.083,0.227,0.186c0,0.144-0.041,0.349-0.082,0.986
	c-0.021,0.576-0.021,1.541-0.042,1.788c-0.021,0.268-0.103,0.37-0.204,0.37c-0.124,0-0.145-0.123-0.145-0.37
	c0-0.678-0.287-1.377-0.761-1.747c-0.637-0.534-1.952-0.965-3.554-0.965c-2.322,0-3.432,0.617-4.069,1.211
	c-1.335,1.233-1.623,2.796-1.623,4.563c0,3.351,2.651,6.33,6.514,6.33c1.355,0,2.261-0.103,2.979-0.821
	c0.391-0.391,0.637-1.132,0.699-1.46c0.04-0.185,0.061-0.247,0.185-0.247c0.083,0,0.164,0.124,0.164,0.247s-0.246,1.644-0.432,2.239
	c-0.103,0.33-0.144,0.391-0.452,0.516c-0.739,0.287-2.096,0.389-3.267,0.389c-0.246,0-0.473,0-0.698-0.02
	C166.622,58.627,165.965,59.244,165.821,59.387z"/>
<path fill="#2D0351" d="M178.934,45.188c0.228-0.575,0.309-0.678,0.432-0.678c0.186,0,0.247,0.247,0.433,0.637
	c0.329,0.74,3.228,7.953,4.337,10.604c0.656,1.562,1.149,1.786,1.54,1.91c0.268,0.083,0.534,0.103,0.719,0.103
	c0.103,0,0.228,0.041,0.228,0.145c0,0.102-0.207,0.144-0.412,0.144c-0.268,0-1.604,0-2.857-0.042
	c-0.349-0.02-0.637-0.02-0.637-0.123c0-0.082,0.043-0.082,0.123-0.123c0.104-0.041,0.289-0.186,0.165-0.473l-1.623-4.008
	c-0.042-0.082-0.062-0.102-0.165-0.102h-4.17c-0.082,0-0.145,0.04-0.186,0.143l-1.027,2.795c-0.164,0.432-0.268,0.863-0.268,1.172
	c0,0.35,0.307,0.473,0.615,0.473h0.165c0.144,0,0.186,0.063,0.186,0.145c0,0.102-0.104,0.144-0.269,0.144
	c-0.431,0-1.418-0.062-1.623-0.062c-0.185,0-1.09,0.062-1.828,0.062c-0.227,0-0.35-0.042-0.35-0.144
	c0-0.082,0.082-0.145,0.164-0.145c0.123,0,0.391-0.02,0.534-0.041c0.821-0.102,1.172-0.719,1.521-1.604L178.934,45.188z
	 M180.949,52.463c0.081,0,0.081-0.041,0.061-0.125l-1.788-4.787c-0.103-0.268-0.204-0.268-0.308,0l-1.684,4.787
	c-0.021,0.084,0,0.125,0.061,0.125H180.949z"/>
<path fill="#2D0351" d="M190.649,53.018c0,2.568,0.042,3.617,0.371,3.925c0.287,0.288,0.986,0.411,2.403,0.411
	c0.945,0,1.748-0.02,2.179-0.534c0.226-0.268,0.37-0.636,0.432-0.986c0.02-0.124,0.082-0.226,0.185-0.226
	c0.083,0,0.123,0.082,0.123,0.266c0,0.186-0.123,1.234-0.268,1.748c-0.123,0.412-0.184,0.473-1.15,0.473
	c-1.293,0-2.301-0.02-3.145-0.061c-0.821-0.021-1.438-0.042-1.972-0.042c-0.082,0-0.391,0-0.739,0.021
	c-0.371,0.021-0.762,0.041-1.049,0.041c-0.185,0-0.287-0.041-0.287-0.144c0-0.062,0.04-0.144,0.143-0.144
	c0.164,0,0.391-0.042,0.556-0.082c0.349-0.084,0.391-0.412,0.474-0.926c0.102-0.719,0.102-2.096,0.102-3.78v-3.083
	c0-2.713,0-3.206-0.041-3.761c-0.041-0.596-0.144-0.884-0.739-0.966c-0.144-0.021-0.452-0.042-0.616-0.042
	c-0.061,0-0.145-0.082-0.145-0.144c0-0.102,0.084-0.144,0.287-0.144c0.822,0,1.953,0.042,2.056,0.042
	c0.083,0,1.438-0.042,1.993-0.042c0.186,0,0.288,0.042,0.288,0.144c0,0.062-0.082,0.124-0.144,0.124c-0.124,0-0.39,0.02-0.596,0.041
	c-0.535,0.103-0.637,0.371-0.678,0.987c-0.021,0.555-0.021,1.048-0.021,3.76v3.123H190.649z"/>
<path fill="#333333" d="M93.085,70.672c0.172-0.477,0.23-0.562,0.316-0.562c0.086,0,0.144,0.071,0.316,0.519
	c0.216,0.547,2.476,6.49,3.354,8.678c0.518,1.281,0.936,1.512,1.237,1.598c0.217,0.072,0.432,0.088,0.577,0.088
	c0.087,0,0.144,0.014,0.144,0.086c0,0.086-0.13,0.115-0.289,0.115c-0.215,0-1.266,0-2.259-0.029c-0.273-0.014-0.432-0.014-0.432-0.1
	c0-0.057,0.043-0.087,0.101-0.101c0.086-0.028,0.172-0.159,0.086-0.389l-1.338-3.54c-0.028-0.058-0.057-0.088-0.129-0.088h-3.095
	c-0.071,0-0.115,0.044-0.144,0.117l-0.862,2.546c-0.13,0.36-0.202,0.704-0.202,0.964c0,0.288,0.302,0.418,0.547,0.418h0.144
	c0.1,0,0.144,0.027,0.144,0.086c0,0.086-0.086,0.115-0.216,0.115c-0.345,0-0.964-0.043-1.122-0.043c-0.16,0-0.951,0.043-1.626,0.043
	c-0.187,0-0.273-0.029-0.273-0.115c0-0.057,0.057-0.086,0.128-0.086c0.102,0,0.303-0.016,0.417-0.029
	c0.663-0.086,0.95-0.633,1.209-1.354L93.085,70.672z M94.582,76.428c0.071,0,0.071-0.044,0.057-0.102l-1.368-3.885
	c-0.072-0.217-0.144-0.217-0.215,0l-1.267,3.885c-0.029,0.072,0,0.102,0.044,0.102H94.582z"/>
<path fill="#333333" d="M100.752,75.477c0-1.898,0-2.245-0.029-2.633c-0.028-0.417-0.1-0.619-0.518-0.677
	c-0.101-0.015-0.316-0.028-0.431-0.028c-0.044,0-0.101-0.057-0.101-0.101c0-0.071,0.057-0.101,0.201-0.101
	c0.576,0,1.396,0.029,1.468,0.029c0.144,0,0.95-0.029,1.698-0.029c1.267,0,3.583-0.115,5.08,1.396
	c0.633,0.632,1.238,1.654,1.238,3.107c0,1.541-0.663,2.721-1.367,3.441c-0.548,0.56-1.685,1.409-3.844,1.409
	c-0.546,0-1.223-0.044-1.77-0.071c-0.547-0.044-0.979-0.072-1.036-0.072c-0.029,0-0.259,0.015-0.518,0.015
	c-0.26,0.015-0.562,0.028-0.763,0.028c-0.13,0-0.201-0.028-0.201-0.1c0-0.044,0.028-0.102,0.1-0.102
	c0.115,0,0.273-0.028,0.389-0.057c0.244-0.057,0.274-0.289,0.332-0.648c0.071-0.502,0.071-1.467,0.071-2.648L100.752,75.477
	L100.752,75.477z M101.905,76.801c0,1.297,0,2.434,0.014,2.663c0.016,0.304,0.044,0.748,0.145,0.878
	c0.159,0.23,0.604,0.489,2.101,0.489c1.167,0,2.202-0.389,2.964-1.108c0.663-0.618,0.993-1.784,0.993-2.906
	c0-1.554-0.676-2.547-1.194-3.065c-1.194-1.209-2.589-1.367-4.102-1.367c-0.244,0-0.647,0.044-0.762,0.087
	c-0.116,0.044-0.159,0.102-0.159,0.244V76.801z"/>
<path fill="#333333" d="M115.17,79.593c0.734-1.64,2.389-5.813,2.662-6.692c0.057-0.187,0.115-0.359,0.115-0.459
	c0-0.102-0.042-0.217-0.172-0.26c-0.144-0.044-0.288-0.044-0.431-0.044c-0.073,0-0.144-0.044-0.144-0.101
	c0-0.072,0.087-0.101,0.288-0.101c0.504,0,1.079,0.028,1.238,0.028c0.071,0,0.619-0.028,0.993-0.028
	c0.128,0,0.201,0.028,0.201,0.087s-0.044,0.115-0.144,0.115c-0.086,0-0.375,0-0.604,0.144c-0.173,0.116-0.375,0.288-0.705,1.124
	c-0.144,0.344-0.763,1.813-1.41,3.309c-0.778,1.785-1.339,3.109-1.627,3.713c-0.345,0.734-0.416,0.92-0.546,0.92
	c-0.144,0-0.23-0.158-0.476-0.748l-3.108-7.497c-0.288-0.69-0.46-0.82-0.877-0.921c-0.202-0.043-0.417-0.043-0.489-0.043
	s-0.101-0.072-0.101-0.115c0-0.072,0.129-0.087,0.331-0.087c0.604,0,1.323,0.028,1.483,0.028c0.129,0,0.69-0.028,1.179-0.028
	c0.23,0,0.346,0.028,0.346,0.087s-0.044,0.115-0.13,0.115c-0.144,0-0.345,0.015-0.46,0.057c-0.13,0.058-0.144,0.129-0.144,0.217
	c0,0.158,0.158,0.531,0.345,1.021L115.17,79.593z"/>
<path fill="#333333" d="M125.299,71.765c2.849,0,5.008,1.741,5.008,4.591c0,2.734-2.029,4.994-5.08,4.994
	c-3.469,0-4.952-2.605-4.952-4.807C120.276,74.571,121.802,71.765,125.299,71.765z M125.587,80.846c1.137,0,3.425-0.604,3.425-4.145
	c0-2.936-1.785-4.477-3.785-4.477c-2.116,0-3.641,1.324-3.641,3.988C121.586,79.061,123.3,80.846,125.587,80.846z"/>
<path fill="#333333" d="M139.299,78.068c0-0.992-0.028-1.137-0.547-1.238c-0.101-0.015-0.317-0.029-0.432-0.029
	c-0.042,0-0.101-0.057-0.101-0.1c0-0.087,0.058-0.101,0.202-0.101c0.575,0,1.424,0.028,1.497,0.028c0.057,0,0.849-0.028,1.237-0.028
	c0.144,0,0.201,0.015,0.201,0.101c0,0.043-0.057,0.1-0.1,0.1c-0.087,0-0.172,0-0.317,0.029c-0.344,0.057-0.446,0.245-0.475,0.676
	c-0.015,0.389-0.015,0.749-0.015,1.267v1.368c0,0.561-0.014,0.576-0.172,0.662c-0.806,0.416-1.958,0.547-2.691,0.547
	c-0.964,0-2.762-0.115-4.173-1.311c-0.777-0.646-1.51-1.957-1.51-3.482c0-1.957,0.992-3.338,2.114-4.015
	c1.137-0.69,2.403-0.776,3.368-0.776c0.806,0,1.698,0.144,1.943,0.201c0.259,0.057,0.704,0.129,1.022,0.129
	c0.128,0,0.158,0.057,0.158,0.115c0,0.172-0.071,0.504-0.071,1.727c0,0.201-0.057,0.259-0.144,0.259
	c-0.073,0-0.086-0.071-0.086-0.187c-0.016-0.159-0.086-0.519-0.289-0.807c-0.317-0.46-1.281-0.95-2.921-0.95
	c-0.763,0-1.684,0.058-2.648,0.792c-0.735,0.561-1.251,1.654-1.251,3.08c0,1.727,0.891,2.965,1.338,3.381
	c1.007,0.936,2.072,1.281,3.237,1.281c0.447,0,1.037-0.043,1.368-0.231c0.158-0.087,0.26-0.144,0.26-0.374L139.299,78.068
	L139.299,78.068z"/>
<path fill="#333333" d="M146.189,72.182c0.159-0.402,0.216-0.475,0.303-0.475c0.129,0,0.172,0.172,0.302,0.446
	c0.231,0.519,2.259,5.569,3.037,7.426c0.46,1.094,0.806,1.252,1.079,1.339c0.187,0.057,0.375,0.072,0.503,0.072
	c0.072,0,0.158,0.028,0.158,0.1c0,0.072-0.144,0.102-0.287,0.102c-0.188,0-1.123,0-2.001-0.029
	c-0.244-0.015-0.446-0.015-0.446-0.086c0-0.058,0.028-0.058,0.086-0.088c0.071-0.027,0.201-0.129,0.115-0.331l-1.137-2.806
	c-0.028-0.058-0.044-0.072-0.116-0.072h-2.921c-0.057,0-0.101,0.028-0.129,0.101l-0.719,1.958c-0.115,0.303-0.188,0.604-0.188,0.819
	c0,0.245,0.216,0.331,0.432,0.331h0.115c0.101,0,0.13,0.044,0.13,0.102c0,0.071-0.073,0.1-0.188,0.1
	c-0.302,0-0.993-0.043-1.137-0.043c-0.129,0-0.763,0.043-1.281,0.043c-0.16,0-0.245-0.028-0.245-0.1
	c0-0.058,0.057-0.102,0.115-0.102c0.088,0,0.274-0.014,0.375-0.027c0.576-0.072,0.82-0.505,1.064-1.123L146.189,72.182z
	 M147.6,77.277c0.057,0,0.057-0.029,0.043-0.087l-1.252-3.354c-0.071-0.187-0.144-0.187-0.215,0l-1.18,3.354
	c-0.015,0.058,0,0.087,0.044,0.087H147.6z"/>
<path fill="#333333" d="M153.24,75.477c0-1.898,0-2.245-0.029-2.633c-0.028-0.417-0.102-0.619-0.519-0.677
	c-0.101-0.015-0.317-0.028-0.433-0.028c-0.042,0-0.1-0.057-0.1-0.101c0-0.071,0.058-0.101,0.201-0.101
	c0.575,0,1.396,0.029,1.467,0.029c0.145,0,0.951-0.029,1.699-0.029c1.266,0,3.584-0.115,5.08,1.396
	c0.633,0.632,1.237,1.654,1.237,3.107c0,1.541-0.662,2.721-1.367,3.441c-0.546,0.56-1.683,1.409-3.843,1.409
	c-0.547,0-1.223-0.044-1.771-0.071c-0.546-0.044-0.979-0.072-1.036-0.072c-0.028,0-0.258,0.015-0.519,0.015
	c-0.259,0.015-0.56,0.028-0.763,0.028c-0.129,0-0.201-0.028-0.201-0.1c0-0.044,0.029-0.102,0.102-0.102
	c0.115,0,0.273-0.028,0.388-0.057c0.245-0.057,0.272-0.289,0.331-0.648c0.072-0.502,0.072-1.467,0.072-2.648v-2.16H153.24z
	 M154.39,76.801c0,1.297,0,2.434,0.016,2.663c0.015,0.304,0.042,0.748,0.144,0.878c0.158,0.23,0.604,0.489,2.102,0.489
	c1.166,0,2.202-0.389,2.965-1.108c0.662-0.618,0.993-1.784,0.993-2.906c0-1.554-0.677-2.547-1.195-3.065
	c-1.194-1.209-2.591-1.367-4.101-1.367c-0.246,0-0.648,0.044-0.764,0.087c-0.115,0.044-0.159,0.102-0.159,0.244V76.801z"/>
<path fill="#333333" d="M168.462,71.765c2.851,0,5.009,1.741,5.009,4.591c0,2.734-2.031,4.994-5.081,4.994
	c-3.468,0-4.95-2.605-4.95-4.807C163.439,74.571,164.965,71.765,168.462,71.765z M168.749,80.846c1.138,0,3.426-0.604,3.426-4.145
	c0-2.936-1.785-4.477-3.785-4.477c-2.114,0-3.641,1.324-3.641,3.988C164.749,79.061,166.462,80.846,168.749,80.846z"/>
<path fill="#333333" d="M175.439,81.019c-0.173-0.087-0.188-0.13-0.188-0.461c0-0.604,0.057-1.094,0.072-1.295
	c0-0.129,0.027-0.2,0.1-0.2s0.115,0.043,0.115,0.143c0,0.102,0,0.273,0.045,0.447c0.2,0.892,1.149,1.209,1.999,1.209
	c1.253,0,1.899-0.705,1.899-1.627c0-0.879-0.475-1.295-1.598-2.13l-0.574-0.433c-1.367-1.021-1.814-1.77-1.814-2.619
	c0-1.438,1.138-2.301,2.807-2.301c0.504,0,1.006,0.071,1.31,0.143c0.244,0.058,0.345,0.058,0.446,0.058
	c0.1,0,0.129,0.015,0.129,0.087c0,0.057-0.057,0.461-0.057,1.295c0,0.188-0.015,0.273-0.102,0.273c-0.086,0-0.1-0.057-0.115-0.158
	c-0.014-0.145-0.115-0.476-0.187-0.605c-0.087-0.143-0.504-0.604-1.642-0.604c-0.92,0-1.682,0.461-1.682,1.324
	c0,0.776,0.387,1.223,1.64,2.072l0.359,0.244c1.54,1.051,2.073,1.899,2.073,2.949c0,0.721-0.272,1.498-1.18,2.088
	c-0.532,0.345-1.324,0.432-2.014,0.432C176.691,81.35,175.957,81.263,175.439,81.019z"/>
<path fill="#333333" d="M191.121,70.672c0.173-0.477,0.23-0.562,0.316-0.562s0.145,0.071,0.316,0.519
	c0.217,0.547,2.477,6.49,3.354,8.678c0.518,1.281,0.935,1.512,1.236,1.598c0.217,0.072,0.433,0.088,0.577,0.088
	c0.086,0,0.144,0.014,0.144,0.086c0,0.086-0.13,0.115-0.288,0.115c-0.216,0-1.267,0-2.259-0.029c-0.274-0.014-0.433-0.014-0.433-0.1
	c0-0.057,0.043-0.087,0.101-0.101c0.087-0.028,0.173-0.159,0.087-0.389l-1.338-3.54c-0.029-0.058-0.058-0.088-0.129-0.088h-3.095
	c-0.071,0-0.115,0.044-0.144,0.117l-0.863,2.546c-0.13,0.36-0.201,0.704-0.201,0.964c0,0.288,0.302,0.418,0.547,0.418h0.145
	c0.1,0,0.143,0.027,0.143,0.086c0,0.086-0.086,0.115-0.215,0.115c-0.346,0-0.965-0.043-1.123-0.043
	c-0.159,0-0.951,0.043-1.626,0.043c-0.188,0-0.272-0.029-0.272-0.115c0-0.057,0.057-0.086,0.127-0.086
	c0.102,0,0.304-0.016,0.418-0.029c0.662-0.086,0.95-0.633,1.209-1.354L191.121,70.672z M192.619,76.428
	c0.07,0,0.07-0.044,0.057-0.102l-1.367-3.885c-0.072-0.217-0.144-0.217-0.215,0l-1.268,3.885c-0.029,0.072,0,0.102,0.044,0.102
	H192.619z"/>
<path fill="#333333" d="M197.854,81.019c-0.173-0.087-0.187-0.13-0.187-0.461c0-0.604,0.057-1.094,0.071-1.295
	c0-0.129,0.028-0.2,0.101-0.2s0.115,0.043,0.115,0.143c0,0.102,0,0.273,0.043,0.447c0.201,0.892,1.152,1.209,2.002,1.209
	c1.251,0,1.898-0.705,1.898-1.627c0-0.879-0.475-1.295-1.598-2.13l-0.576-0.433c-1.366-1.021-1.813-1.77-1.813-2.619
	c0-1.438,1.137-2.301,2.806-2.301c0.504,0,1.008,0.071,1.31,0.143c0.245,0.058,0.346,0.058,0.447,0.058
	c0.101,0,0.129,0.015,0.129,0.087c0,0.057-0.057,0.461-0.057,1.295c0,0.188-0.016,0.273-0.102,0.273s-0.1-0.057-0.115-0.158
	c-0.015-0.145-0.115-0.476-0.188-0.605c-0.086-0.143-0.502-0.604-1.641-0.604c-0.92,0-1.684,0.461-1.684,1.324
	c0,0.776,0.389,1.223,1.641,2.072l0.361,0.244c1.539,1.051,2.072,1.899,2.072,2.949c0,0.721-0.273,1.498-1.181,2.088
	c-0.532,0.345-1.323,0.432-2.015,0.432C199.105,81.35,198.373,81.263,197.854,81.019z"/>
<path fill="#333333" d="M205.394,81.019c-0.173-0.087-0.188-0.13-0.188-0.461c0-0.604,0.058-1.094,0.073-1.295
	c0-0.129,0.028-0.2,0.101-0.2s0.115,0.043,0.115,0.143c0,0.102,0,0.273,0.043,0.447c0.201,0.892,1.151,1.209,2.001,1.209
	c1.253,0,1.899-0.705,1.899-1.627c0-0.879-0.475-1.295-1.598-2.13l-0.576-0.433c-1.366-1.021-1.813-1.77-1.813-2.619
	c0-1.438,1.137-2.301,2.806-2.301c0.504,0,1.007,0.071,1.31,0.143c0.245,0.058,0.345,0.058,0.447,0.058
	c0.1,0,0.129,0.015,0.129,0.087c0,0.057-0.058,0.461-0.058,1.295c0,0.188-0.015,0.273-0.101,0.273s-0.102-0.057-0.115-0.158
	c-0.016-0.145-0.115-0.476-0.188-0.605c-0.087-0.143-0.504-0.604-1.641-0.604c-0.922,0-1.684,0.461-1.684,1.324
	c0,0.776,0.389,1.223,1.641,2.072l0.36,0.244c1.54,1.051,2.072,1.899,2.072,2.949c0,0.721-0.272,1.498-1.18,2.088
	c-0.532,0.345-1.324,0.432-2.015,0.432C206.645,81.35,205.91,81.263,205.394,81.019z"/>
<path fill="#333333" d="M217.581,71.765c2.849,0,5.007,1.741,5.007,4.591c0,2.734-2.028,4.994-5.08,4.994
	c-3.467,0-4.95-2.605-4.95-4.807C212.558,74.571,214.083,71.765,217.581,71.765z M217.869,80.846c1.137,0,3.425-0.604,3.425-4.145
	c0-2.936-1.785-4.477-3.786-4.477c-2.115,0-3.64,1.324-3.64,3.988C213.868,79.061,215.58,80.846,217.869,80.846z"/>
<path fill="#333333" d="M225.723,80.039c-1.238-1.064-1.539-2.461-1.539-3.627c0-0.82,0.302-2.245,1.424-3.338
	c0.764-0.734,1.915-1.31,3.857-1.31c0.504,0,1.223,0.043,1.842,0.144c0.475,0.086,0.878,0.172,1.295,0.188
	c0.129,0,0.159,0.057,0.159,0.129c0,0.1-0.028,0.244-0.058,0.691c-0.015,0.402-0.015,1.078-0.028,1.251
	c-0.015,0.188-0.071,0.26-0.144,0.26c-0.087,0-0.101-0.087-0.101-0.26c0-0.475-0.201-0.964-0.532-1.224
	c-0.446-0.373-1.367-0.676-2.49-0.676c-1.626,0-2.402,0.432-2.849,0.849c-0.936,0.864-1.138,1.958-1.138,3.195
	c0,2.345,1.857,4.433,4.563,4.433c0.951,0,1.584-0.073,2.087-0.576c0.273-0.273,0.446-0.791,0.489-1.021
	c0.028-0.129,0.043-0.173,0.129-0.173c0.057,0,0.115,0.087,0.115,0.173c0,0.085-0.172,1.15-0.303,1.568
	c-0.071,0.23-0.1,0.273-0.316,0.359c-0.518,0.201-1.467,0.273-2.288,0.273C227.996,81.35,226.715,80.903,225.723,80.039z"/>
<path fill="#333333" d="M236.959,77.637c0,1.18,0,2.145,0.058,2.648c0.044,0.359,0.087,0.59,0.46,0.647
	c0.188,0.028,0.461,0.058,0.576,0.058c0.072,0,0.102,0.057,0.102,0.1c0,0.058-0.058,0.102-0.201,0.102
	c-0.705,0-1.526-0.044-1.584-0.044c-0.071,0-0.863,0.044-1.252,0.044c-0.128,0-0.201-0.029-0.201-0.102c0-0.043,0.029-0.1,0.102-0.1
	c0.115,0,0.273-0.029,0.389-0.058c0.244-0.058,0.287-0.288,0.33-0.647c0.057-0.504,0.072-1.469,0.072-2.648v-2.158
	c0-1.9,0-2.246-0.027-2.635c-0.029-0.416-0.131-0.604-0.404-0.662c-0.144-0.028-0.303-0.043-0.388-0.043
	c-0.058,0-0.102-0.057-0.102-0.101c0-0.071,0.058-0.101,0.201-0.101c0.417,0,1.209,0.029,1.28,0.029
	c0.058,0,0.879-0.029,1.267-0.029c0.144,0,0.201,0.029,0.201,0.101c0,0.044-0.058,0.101-0.1,0.101c-0.087,0-0.173,0-0.317,0.028
	c-0.345,0.072-0.416,0.245-0.445,0.677c-0.016,0.388-0.016,0.734-0.016,2.633V77.637L236.959,77.637z"/>
<path fill="#333333" d="M243.334,72.182c0.158-0.402,0.215-0.475,0.302-0.475c0.13,0,0.173,0.172,0.304,0.446
	c0.23,0.519,2.258,5.569,3.036,7.426c0.46,1.094,0.806,1.252,1.079,1.339c0.188,0.057,0.374,0.072,0.504,0.072
	c0.072,0,0.158,0.028,0.158,0.1c0,0.072-0.145,0.102-0.288,0.102c-0.187,0-1.122,0-2-0.029c-0.245-0.015-0.446-0.015-0.446-0.086
	c0-0.058,0.028-0.058,0.086-0.088c0.072-0.027,0.201-0.129,0.115-0.331l-1.137-2.806c-0.029-0.058-0.043-0.072-0.115-0.072h-2.922
	c-0.057,0-0.101,0.028-0.129,0.101l-0.719,1.958c-0.115,0.303-0.188,0.604-0.188,0.819c0,0.245,0.216,0.331,0.433,0.331h0.115
	c0.1,0,0.129,0.044,0.129,0.102c0,0.071-0.072,0.1-0.188,0.1c-0.303,0-0.992-0.043-1.137-0.043c-0.129,0-0.764,0.043-1.281,0.043
	c-0.158,0-0.244-0.028-0.244-0.1c0-0.058,0.057-0.102,0.115-0.102c0.088,0,0.272-0.014,0.375-0.027
	c0.574-0.072,0.82-0.505,1.064-1.123L243.334,72.182z M244.744,77.277c0.057,0,0.057-0.029,0.043-0.087l-1.252-3.354
	c-0.072-0.187-0.144-0.187-0.215,0l-1.182,3.354c-0.014,0.058,0,0.087,0.045,0.087H244.744z"/>
<path fill="#333333" d="M250.383,75.477c0-1.898,0-2.245-0.027-2.633c-0.029-0.417-0.102-0.619-0.519-0.677
	c-0.101-0.015-0.317-0.028-0.433-0.028c-0.043,0-0.1-0.057-0.1-0.101c0-0.071,0.057-0.101,0.201-0.101
	c0.574,0,1.395,0.029,1.467,0.029c0.145,0,0.949-0.029,1.699-0.029c1.266,0,3.582-0.115,5.079,1.396
	c0.632,0.632,1.239,1.654,1.239,3.107c0,1.541-0.664,2.721-1.368,3.441c-0.548,0.56-1.684,1.409-3.843,1.409
	c-0.547,0-1.223-0.044-1.771-0.071c-0.547-0.044-0.978-0.072-1.035-0.072c-0.027,0-0.258,0.015-0.518,0.015
	c-0.26,0.015-0.561,0.028-0.764,0.028c-0.129,0-0.201-0.028-0.201-0.1c0-0.044,0.029-0.102,0.101-0.102
	c0.115,0,0.274-0.028,0.39-0.057c0.244-0.057,0.271-0.289,0.33-0.648c0.072-0.502,0.072-1.467,0.072-2.648V75.477L250.383,75.477z
	 M251.534,76.801c0,1.297,0,2.434,0.015,2.663c0.016,0.304,0.043,0.748,0.145,0.878c0.158,0.23,0.604,0.489,2.101,0.489
	c1.167,0,2.202-0.389,2.966-1.108c0.661-0.618,0.992-1.784,0.992-2.906c0-1.554-0.676-2.547-1.194-3.065
	c-1.194-1.209-2.591-1.367-4.102-1.367c-0.244,0-0.647,0.044-0.763,0.087c-0.115,0.044-0.159,0.102-0.159,0.244V76.801
	L251.534,76.801z"/>
<path fill="#333333" d="M265.606,71.765c2.849,0,5.007,1.741,5.007,4.591c0,2.734-2.028,4.994-5.078,4.994
	c-3.469,0-4.952-2.605-4.952-4.807C260.583,74.571,262.109,71.765,265.606,71.765z M265.895,80.846c1.137,0,3.425-0.604,3.425-4.145
	c0-2.936-1.785-4.477-3.784-4.477c-2.117,0-3.642,1.324-3.642,3.988C261.894,79.061,263.606,80.846,265.895,80.846z"/>
<path fill="#333333" d="M272.584,81.019c-0.173-0.087-0.188-0.13-0.188-0.461c0-0.604,0.058-1.094,0.073-1.295
	c0-0.129,0.028-0.2,0.1-0.2c0.072,0,0.115,0.043,0.115,0.143c0,0.102,0,0.273,0.043,0.447c0.201,0.892,1.152,1.209,2.002,1.209
	c1.252,0,1.898-0.705,1.898-1.627c0-0.879-0.475-1.295-1.598-2.13l-0.575-0.433c-1.366-1.021-1.813-1.77-1.813-2.619
	c0-1.438,1.137-2.301,2.807-2.301c0.504,0,1.007,0.071,1.309,0.143c0.245,0.058,0.345,0.058,0.447,0.058
	c0.101,0,0.129,0.015,0.129,0.087c0,0.057-0.057,0.461-0.057,1.295c0,0.188-0.016,0.273-0.102,0.273
	c-0.085,0-0.101-0.057-0.115-0.158c-0.016-0.145-0.115-0.476-0.188-0.605c-0.086-0.143-0.503-0.604-1.641-0.604
	c-0.921,0-1.684,0.461-1.684,1.324c0,0.776,0.389,1.223,1.642,2.072l0.359,0.244c1.54,1.051,2.073,1.899,2.073,2.949
	c0,0.721-0.273,1.498-1.18,2.088c-0.533,0.345-1.324,0.432-2.016,0.432C273.835,81.35,273.101,81.263,272.584,81.019z"/>
<line fill="none" stroke="#000000" stroke-width="2" stroke-miterlimit="10" x1="88.017" y1="64.68" x2="278.143" y2="64.68"/>
</svg>
