<?xml version="1.0" encoding="utf-8"?>
<!-- Generator: Adobe Illustrator 15.0.0, SVG Export Plug-In  -->
<!DOCTYPE svg PUBLIC "-//W3C//DTD SVG 1.1//EN" "http://www.w3.org/Graphics/SVG/1.1/DTD/svg11.dtd" [
	<!ENTITY ns_flows "http://ns.adobe.com/Flows/1.0/">
]>
<svg version="1.1"
	 xmlns="http://www.w3.org/2000/svg" xmlns:xlink="http://www.w3.org/1999/xlink" xmlns:a="http://ns.adobe.com/AdobeSVGViewerExtensions/3.0/"
	 x="0px" y="0px" width="302px" height="97px" viewBox="0 0 302 97" enable-background="new 0 0 302 97" xml:space="preserve">
<defs>
</defs>
<rect id="_x3C_Slice_x3E__2_" fill="none" width="302" height="97"/>
<path opacity="0.75" d="M43.971,16.053c0,0,4.175-7.191,12.381-14.029c0,0,4.936,4.747,5.91,8.552c0,0,0.44,1.101,0.221,3.678
	c0,0-2.893-0.282-6.1,1.132S48.129,17.224,43.971,16.053z M25.791,9.378c-8.299,7.73-11.412,19.621,1.51,42.446
	C40.223,74.648,41.543,78.893,43.24,84.553c1.698,5.659,0.378,12.073,0.378,12.073s0.943-0.189,2.546-9.149
	c1.604-8.96-7.356-21.033-11.035-47.632c-3.678-26.597,9.244-38.954,9.244-38.954S34.092,1.646,25.791,9.378z M15.605,53.711
	C23.15,64.84,30.318,76.205,34.752,85.024s4.01,11.602,4.01,11.602s0.753-1.603,0.753-6.603c0-4.999-6.365-18.864-6.365-18.864
	c-3.491-8.111-7.452-13.016-15.94-28.956c-8.49-15.94-7.83-25.472-7.83-25.472C-3.919,24.46,8.059,42.58,15.605,53.711z
	 M4.947,60.753c2.767,7.482,19.712,21.159,25.23,27.714c5.518,6.557,5.611,8.175,5.611,8.175
	C35.6,90.526,27.771,79.46,19.566,68.235C11.361,57.012,3.404,44.373,3.404,44.373C1.859,48.994,2.181,53.27,4.947,60.753z
	 M55.723,37.487c-3.27,3.584-14.619,10.092-14.619,10.092s3.01,8.158,6.995,20.257c3.983,12.095,2.876,15.727,2.735,19.781
	c-0.142,4.056-2.027,9.009-2.027,9.009c2.687-3.796,4.928-8.159,6.542-12.168c1.614-4.008,0.319-6.437,0.013-10.469
	c-0.307-4.033,5.234-5.463,9.29-6.665c11.569-3.364,6.354-9.806,4.139-11.739c-2.217-1.933-0.72-3.054-0.011-3.691
	c0.707-0.636,1.744-1.39,2.074-1.933c0.33-0.542,0.307-1.062-0.328-1.604c-0.633-0.543-3.563-1.014-3.563-1.014
	s1.368-0.142,2.193-0.236c0.825-0.094,2.192-0.92,1.792-2.477c-0.4-1.556-1.061-3.159-0.707-4.599
	c0.354-1.437,3.066-2.899,4.551-5.304c0.313-0.508,0.34-1.42-0.408-1.979c-2.114-1.582-4.072-3.28-5.519-5.103
	c-1.186-1.493-2.751-1.927-2.751-1.927S58.992,33.903,55.723,37.487z"/>
<linearGradient id="SVGID_1_" gradientUnits="userSpaceOnUse" x1="37.6328" y1="14.3877" x2="37.6328" y2="86.9034">
	<stop  offset="0" style="stop-color:#AA70E8"/>
	<stop  offset="1" style="stop-color:#46057F"/>
</linearGradient>
<path fill="url(#SVGID_1_)" d="M42.864,15.735c0,0,4.174-7.19,12.38-14.028c0,0,4.936,4.747,5.91,8.552c0,0,0.44,1.101,0.221,3.678
	c0,0-2.893-0.282-6.1,1.132C52.068,16.484,47.021,16.908,42.864,15.735z M24.685,9.061c-8.302,7.732-11.413,19.622,1.509,42.447
	c12.922,22.826,14.242,27.069,15.939,32.729c1.698,5.66,0.379,12.072,0.379,12.072s0.941-0.188,2.545-9.147
	c1.604-8.961-7.357-21.033-11.035-47.632s9.244-38.955,9.244-38.955S32.984,1.329,24.685,9.061z M14.497,53.395
	c7.546,11.13,14.714,22.494,19.147,31.313s4.009,11.601,4.009,11.601s0.755-1.603,0.755-6.602s-6.366-18.864-6.366-18.864
	c-3.491-8.111-7.452-13.015-15.94-28.956c-8.489-15.939-7.83-25.472-7.83-25.472C-5.027,24.144,6.953,42.264,14.497,53.395z
	 M3.84,60.438C6.605,67.92,23.553,81.596,29.07,88.15c5.518,6.556,5.611,8.175,5.611,8.175c-0.189-6.115-8.018-17.181-16.223-28.405
	C10.253,56.695,2.296,44.057,2.296,44.057C0.752,48.679,1.073,52.954,3.84,60.438z M54.615,37.171
	c-3.27,3.584-14.62,10.092-14.62,10.092s3.011,8.16,6.996,20.256c3.984,12.097,2.877,15.729,2.735,19.784
	c-0.142,4.055-2.028,9.006-2.028,9.006c2.688-3.795,4.929-8.158,6.543-12.166c1.616-4.01,0.319-6.438,0.013-10.469
	c-0.308-4.033,5.234-5.465,9.29-6.666c11.569-3.365,6.354-9.806,4.139-11.739c-2.218-1.934-0.72-3.054-0.012-3.69
	c0.707-0.636,1.744-1.391,2.075-1.933c0.33-0.544,0.305-1.062-0.328-1.604s-3.564-1.016-3.564-1.016s1.369-0.141,2.194-0.235
	c0.825-0.094,2.192-0.918,1.792-2.476c-0.4-1.557-1.061-3.16-0.707-4.598c0.354-1.439,3.066-2.901,4.551-5.306
	c0.313-0.506,0.339-1.419-0.408-1.979c-2.115-1.581-4.072-3.279-5.52-5.102c-1.185-1.493-2.75-1.928-2.75-1.928
	S57.885,33.587,54.615,37.171z"/>
<path opacity="0.9" fill="#BE89F7" d="M43.896,14.994c0,0,5.458-8.028,11.272-12.577c0,0,5.774,4.588,5.854,10.561l-0.119,0.515
	c0,0-2.332-0.436-6.09,1.187c-3.759,1.622-7.121,1.425-11.194,0.871L43.896,14.994z"/>
<path fill="#BE89F7" d="M41.592,1.28c0,0-16.443,16.919-5.844,51.766c0,0-1.646,1.409-6.393,2.744c0,0-11.05-18.407-10.991-29.086
	C17.533,14.837,27.086,5.047,41.592,1.28z"/>
<path fill="#BE89F7" d="M65.295,25.517c0,0-6.357,15.297-24.078,25.106l-1.222-3.36c0,0,5.514-3.294,9.28-5.786
	c3.768-2.492,4.925-3.887,5.814-4.865s4.776-5.311,6.972-7.831c2.194-2.522,2.944-3.376,2.944-3.376S65.146,25.457,65.295,25.517z"
	/>
<path fill="#BE89F7" d="M24.12,57.477c0,0-16.139-23.417-16.406-39.643c0,0-10.827,6.613,2.997,27.737
	c6.17,10.085,8.543,13.29,8.543,13.29S20.876,59.178,24.12,57.477z"/>
<path fill="#BE89F7" d="M12.057,60.284L2.404,45.096c0,0-1.394,7.387,1.859,14.478l0.573,1.463
	C4.837,61.036,6.202,61.432,12.057,60.284z"/>
<path fill="#2D0351" d="M85.677,33.717c0,3.488,0.095,5.007,0.522,5.434c0.379,0.38,0.996,0.546,2.847,0.546
	c1.257,0,2.302-0.023,2.871-0.712c0.308-0.379,0.546-0.973,0.616-1.424c0.024-0.189,0.072-0.308,0.214-0.308
	c0.118,0,0.143,0.095,0.143,0.355s-0.166,1.685-0.356,2.373c-0.166,0.546-0.236,0.641-1.494,0.641c-1.709,0-2.942-0.048-3.939-0.071
	c-0.996-0.048-1.731-0.071-2.42-0.071c-0.095,0-0.498,0.023-0.973,0.023c-0.475,0.024-0.996,0.048-1.353,0.048
	c-0.261,0-0.38-0.048-0.38-0.189c0-0.071,0.048-0.143,0.19-0.143c0.214,0,0.498-0.048,0.712-0.095
	c0.475-0.096,0.593-0.617,0.688-1.306c0.119-0.996,0.119-2.871,0.119-5.148v-4.176c0-3.702,0-4.366-0.048-5.126
	c-0.048-0.807-0.237-1.186-1.021-1.353c-0.189-0.047-0.593-0.07-0.807-0.07c-0.095,0-0.189-0.048-0.189-0.143
	c0-0.143,0.119-0.19,0.38-0.19c1.067,0,2.563,0.071,2.681,0.071c0.119,0,1.852-0.071,2.563-0.071c0.262,0,0.38,0.048,0.38,0.19
	c0,0.095-0.095,0.143-0.189,0.143c-0.167,0-0.499,0.023-0.783,0.07c-0.688,0.119-0.878,0.522-0.925,1.353
	c-0.048,0.76-0.048,1.424-0.048,5.126V33.717z"/>
<path fill="#2D0351" d="M97.021,31.131c0-3.132,0-3.701-0.048-4.342c-0.048-0.688-0.166-1.021-0.854-1.115
	c-0.166-0.024-0.521-0.048-0.711-0.048c-0.072,0-0.167-0.095-0.167-0.166c0-0.118,0.095-0.166,0.333-0.166
	c0.949,0,2.301,0.048,2.42,0.048c0.143,0,4.508,0.023,4.982,0c0.403-0.024,0.783-0.096,0.949-0.119
	c0.095-0.023,0.189-0.095,0.285-0.095c0.07,0,0.094,0.095,0.094,0.189c0,0.143-0.118,0.38-0.166,0.949
	c-0.023,0.19-0.07,1.092-0.118,1.329c-0.023,0.095-0.095,0.213-0.19,0.213c-0.118,0-0.166-0.095-0.166-0.261
	c0-0.143-0.023-0.475-0.118-0.712c-0.142-0.332-0.356-0.475-1.495-0.616c-0.355-0.048-2.775-0.071-3.013-0.071
	c-0.095,0-0.118,0.071-0.118,0.213v5.481c0,0.143,0,0.214,0.118,0.214c0.261,0,3.013,0,3.487-0.048
	c0.498-0.048,0.807-0.071,1.021-0.285c0.143-0.142,0.237-0.261,0.309-0.261s0.118,0.048,0.118,0.166
	c0,0.119-0.118,0.451-0.166,1.115c-0.047,0.403-0.095,1.163-0.095,1.306c0,0.166-0.048,0.379-0.189,0.379
	c-0.095,0-0.143-0.071-0.143-0.189c0-0.189,0-0.403-0.095-0.664c-0.071-0.285-0.262-0.522-1.068-0.617
	c-0.568-0.071-2.799-0.095-3.155-0.095c-0.118,0-0.142,0.071-0.142,0.142v1.686c0,0.688-0.024,3.037,0,3.44
	c0.047,1.353,0.426,1.613,2.49,1.613c0.547,0,1.543,0,2.088-0.214c0.547-0.237,0.831-0.593,0.949-1.399
	c0.048-0.237,0.096-0.309,0.214-0.309s0.143,0.166,0.143,0.309c0,0.142-0.166,1.519-0.284,1.945
	c-0.143,0.521-0.356,0.521-1.163,0.521c-1.566,0-2.776-0.047-3.63-0.07c-0.879-0.048-1.424-0.048-1.732-0.048
	c-0.048,0-0.451,0-0.902,0.023c-0.402,0.024-0.877,0.048-1.209,0.048c-0.215,0-0.333-0.048-0.333-0.166
	c0-0.071,0.048-0.166,0.166-0.166c0.19,0,0.451-0.071,0.641-0.095c0.403-0.071,0.451-0.475,0.546-1.068
	c0.119-0.83,0.119-2.42,0.119-4.365V31.131z"/>
<path fill="#2D0351" d="M115.84,25.009c4.697,0,8.257,2.871,8.257,7.569c0,4.509-3.346,8.233-8.376,8.233
	c-5.719,0-8.162-4.295-8.162-7.925C107.559,29.636,110.074,25.009,115.84,25.009z M116.314,39.981c1.874,0,5.646-0.997,5.646-6.834
	c0-4.84-2.942-7.379-6.24-7.379c-3.488,0-6.003,2.183-6.003,6.572C109.718,37.039,112.541,39.981,116.314,39.981z"/>
<path fill="#2D0351" d="M129.178,37.798c0.048,1.661,0.238,2.159,0.807,2.302c0.381,0.095,0.855,0.119,1.045,0.119
	c0.095,0,0.166,0.071,0.166,0.166c0,0.118-0.143,0.166-0.38,0.166c-1.187,0-2.017-0.071-2.206-0.071
	c-0.19,0-1.068,0.071-2.018,0.071c-0.213,0-0.332-0.023-0.332-0.166c0-0.095,0.071-0.166,0.166-0.166
	c0.166,0,0.546-0.024,0.854-0.119c0.522-0.143,0.593-0.688,0.593-2.515V26.029c0-0.807,0.119-1.021,0.285-1.021
	c0.236,0,0.593,0.403,0.807,0.617c0.332,0.332,3.369,3.56,6.596,6.881c2.064,2.136,4.295,4.532,4.936,5.196l-0.213-10.107
	c-0.024-1.306-0.143-1.756-0.783-1.875c-0.38-0.071-0.854-0.095-1.021-0.095c-0.143,0-0.166-0.118-0.166-0.189
	c0-0.119,0.166-0.143,0.403-0.143c0.949,0,1.945,0.048,2.183,0.048s0.925-0.048,1.78-0.048c0.213,0,0.379,0.023,0.379,0.143
	c0,0.071-0.095,0.189-0.237,0.189c-0.095,0-0.261,0-0.498,0.048c-0.688,0.143-0.735,0.546-0.735,1.756l-0.048,11.816
	c0,1.328-0.023,1.447-0.166,1.447c-0.214,0-0.427-0.166-1.59-1.234c-0.214-0.189-3.227-3.155-5.434-5.457
	c-2.42-2.539-4.769-5.007-5.409-5.719L129.178,37.798z"/>
<path fill="#2D0351" d="M147.429,31.131c0-3.132,0-3.701-0.048-4.342c-0.047-0.688-0.166-1.021-0.854-1.115
	c-0.166-0.024-0.522-0.048-0.712-0.048c-0.071,0-0.166-0.095-0.166-0.166c0-0.118,0.095-0.166,0.332-0.166
	c0.949,0,2.302,0.048,2.42,0.048c0.143,0,4.509,0.023,4.983,0c0.402-0.024,0.783-0.096,0.949-0.119
	c0.094-0.023,0.189-0.095,0.284-0.095c0.071,0,0.095,0.095,0.095,0.189c0,0.143-0.119,0.38-0.166,0.949
	c-0.023,0.19-0.071,1.092-0.119,1.329c-0.023,0.095-0.094,0.213-0.189,0.213c-0.119,0-0.166-0.095-0.166-0.261
	c0-0.143-0.023-0.475-0.119-0.712c-0.142-0.332-0.355-0.475-1.494-0.616c-0.355-0.048-2.776-0.071-3.014-0.071
	c-0.095,0-0.118,0.071-0.118,0.213v5.481c0,0.143,0,0.214,0.118,0.214c0.262,0,3.014,0,3.488-0.048
	c0.498-0.048,0.807-0.071,1.02-0.285c0.143-0.142,0.238-0.261,0.309-0.261c0.072,0,0.119,0.048,0.119,0.166
	c0,0.119-0.119,0.451-0.166,1.115c-0.047,0.403-0.096,1.163-0.096,1.306c0,0.166-0.047,0.379-0.189,0.379
	c-0.095,0-0.143-0.071-0.143-0.189c0-0.189,0-0.403-0.094-0.664c-0.072-0.285-0.262-0.522-1.068-0.617
	c-0.569-0.071-2.8-0.095-3.156-0.095c-0.118,0-0.142,0.071-0.142,0.142v1.686c0,0.688-0.024,3.037,0,3.44
	c0.048,1.353,0.427,1.613,2.491,1.613c0.546,0,1.542,0,2.088-0.214c0.546-0.237,0.83-0.593,0.949-1.399
	c0.047-0.237,0.095-0.309,0.213-0.309c0.119,0,0.143,0.166,0.143,0.309c0,0.142-0.166,1.519-0.284,1.945
	c-0.143,0.521-0.356,0.521-1.163,0.521c-1.566,0-2.775-0.047-3.63-0.07c-0.878-0.048-1.424-0.048-1.732-0.048
	c-0.048,0-0.45,0-0.901,0.023c-0.403,0.024-0.878,0.048-1.21,0.048c-0.214,0-0.333-0.048-0.333-0.166
	c0-0.071,0.048-0.166,0.166-0.166c0.19,0,0.451-0.071,0.641-0.095c0.404-0.071,0.451-0.475,0.547-1.068
	c0.118-0.83,0.118-2.42,0.118-4.365V31.131z"/>
<path fill="#2D0351" d="M162.237,34.737c0,2.966,0.048,4.176,0.427,4.532c0.332,0.332,1.139,0.475,2.776,0.475
	c1.091,0,2.017-0.023,2.515-0.617c0.262-0.309,0.428-0.735,0.498-1.139c0.024-0.143,0.096-0.261,0.214-0.261
	c0.095,0,0.143,0.095,0.143,0.308c0,0.214-0.143,1.424-0.309,2.018c-0.142,0.475-0.214,0.545-1.329,0.545
	c-1.494,0-2.656-0.023-3.63-0.07c-0.949-0.024-1.661-0.048-2.278-0.048c-0.094,0-0.45,0-0.854,0.023
	c-0.428,0.024-0.878,0.048-1.21,0.048c-0.214,0-0.333-0.048-0.333-0.166c0-0.071,0.048-0.166,0.166-0.166
	c0.19,0,0.451-0.048,0.641-0.095c0.404-0.096,0.451-0.475,0.547-1.068c0.118-0.83,0.118-2.42,0.118-4.365v-3.56
	c0-3.132,0-3.701-0.048-4.342c-0.047-0.688-0.166-1.021-0.854-1.115c-0.166-0.024-0.522-0.048-0.712-0.048
	c-0.071,0-0.166-0.095-0.166-0.166c0-0.118,0.095-0.166,0.332-0.166c0.949,0,2.254,0.048,2.372,0.048
	c0.096,0,1.662-0.048,2.303-0.048c0.213,0,0.332,0.048,0.332,0.166c0,0.071-0.096,0.143-0.166,0.143
	c-0.143,0-0.451,0.023-0.688,0.047c-0.617,0.119-0.735,0.428-0.783,1.14c-0.023,0.641-0.023,1.21-0.023,4.342V34.737z"/>
<path fill="#2D0351" d="M177.925,35.639c0-2.775,1.779-4.626,3.63-5.718c-0.877-1.234-1.162-2.207-1.162-3.274
	c0-1.875,1.922-4.366,5.102-4.366c1.209,0,2.23,0.237,2.871,0.594c0.284,0.166,0.309,0.309,0.309,0.593
	c0,0.712-0.096,2.373-0.167,2.729c-0.071,0.356-0.142,0.403-0.237,0.403c-0.118,0-0.143-0.095-0.143-0.45
	c0-0.617-0.143-1.4-0.734-2.018c-0.522-0.545-1.33-1.044-2.373-1.044c-1.424,0-3.014,0.878-3.014,3.108
	c0,1.851,1.281,3.394,3.749,6.074c0.807,0.878,3.726,3.606,4.484,4.247c0.664-0.901,1.21-2.491,1.21-3.938
	c0-0.355-0.095-0.807-0.451-1.162c-0.309-0.309-0.807-0.38-1.162-0.38c-0.143,0-0.285-0.048-0.285-0.166
	c0-0.119,0.189-0.166,0.38-0.166c0.569,0,1.519,0.023,2.847,0.166c0.356,0.047,0.428,0.237,0.428,0.475
	c0,1.922-1.305,4.318-2.35,5.6c1.566,1.328,2.611,1.969,3.275,2.349c0.759,0.451,1.969,0.926,2.823,0.926
	c0.214,0,0.332,0.023,0.332,0.166c0,0.095-0.19,0.166-0.403,0.166h-2.325c-1.756,0-2.325-0.166-4.936-2.23
	c-0.546,0.546-2.42,2.563-5.932,2.563C179.538,40.883,177.925,37.703,177.925,35.639z M189.006,37.869
	c-1.329-1.091-3.678-3.346-4.295-4.01s-2.136-2.349-2.801-3.321c-1.232,0.807-2.135,2.088-2.135,3.985
	c0,2.967,2.088,5.102,4.746,5.102C186.728,39.625,188.199,38.7,189.006,37.869z"/>
<path fill="#2D0351" d="M224.388,37.49c0.095,0.854,0.261,2.183,1.281,2.515c0.688,0.214,1.306,0.214,1.542,0.214
	c0.119,0,0.19,0.023,0.19,0.118c0,0.143-0.214,0.214-0.499,0.214c-0.521,0-3.084-0.071-3.962-0.143
	c-0.546-0.047-0.664-0.118-0.664-0.237c0-0.095,0.048-0.143,0.166-0.166s0.142-0.427,0.095-0.854l-1.139-12.243h-0.071
	l-5.813,12.339c-0.498,1.044-0.569,1.257-0.783,1.257c-0.166,0-0.284-0.237-0.735-1.091c-0.616-1.163-2.657-5.268-2.776-5.505
	c-0.213-0.428-2.871-6.122-3.131-6.763h-0.096l-0.949,11.01c-0.023,0.38-0.023,0.807-0.023,1.21c0,0.356,0.261,0.664,0.617,0.735
	c0.402,0.095,0.759,0.119,0.901,0.119c0.095,0,0.19,0.047,0.19,0.118c0,0.166-0.143,0.214-0.428,0.214
	c-0.878,0-2.018-0.071-2.207-0.071c-0.213,0-1.352,0.071-1.992,0.071c-0.238,0-0.404-0.048-0.404-0.214
	c0-0.071,0.119-0.118,0.238-0.118c0.189,0,0.355,0,0.711-0.071c0.783-0.143,0.854-1.068,0.949-1.97l1.709-15.47
	c0.023-0.262,0.118-0.428,0.26-0.428c0.143,0,0.238,0.095,0.356,0.356l7.261,14.924l6.977-14.9c0.094-0.214,0.189-0.38,0.355-0.38
	s0.236,0.19,0.285,0.641L224.388,37.49z"/>
<path fill="#2D0351" d="M234.643,25.697c0.262-0.664,0.356-0.783,0.498-0.783c0.214,0,0.285,0.285,0.499,0.735
	c0.38,0.854,3.726,9.183,5.007,12.244c0.759,1.803,1.328,2.063,1.779,2.206c0.309,0.095,0.617,0.119,0.83,0.119
	c0.119,0,0.262,0.047,0.262,0.166c0,0.118-0.238,0.166-0.475,0.166c-0.309,0-1.852,0-3.299-0.048
	c-0.403-0.023-0.735-0.023-0.735-0.142c0-0.096,0.048-0.096,0.142-0.143c0.119-0.048,0.333-0.214,0.19-0.546l-1.874-4.627
	c-0.048-0.095-0.072-0.118-0.19-0.118h-4.816c-0.095,0-0.166,0.047-0.214,0.166l-1.186,3.227c-0.19,0.498-0.309,0.996-0.309,1.353
	c0,0.403,0.355,0.546,0.711,0.546h0.19c0.166,0,0.214,0.071,0.214,0.166c0,0.118-0.119,0.166-0.309,0.166
	c-0.498,0-1.638-0.071-1.875-0.071c-0.213,0-1.258,0.071-2.111,0.071c-0.262,0-0.403-0.048-0.403-0.166
	c0-0.095,0.095-0.166,0.189-0.166c0.143,0,0.451-0.024,0.617-0.048c0.949-0.118,1.353-0.83,1.756-1.851L234.643,25.697z
	 M236.969,34.097c0.094,0,0.094-0.047,0.07-0.143l-2.064-5.528c-0.118-0.309-0.236-0.309-0.355,0l-1.945,5.528
	c-0.023,0.096,0,0.143,0.07,0.143H236.969z"/>
<path fill="#2D0351" d="M246.105,31.131c0-3.132,0-3.701-0.047-4.342c-0.047-0.688-0.166-1.021-0.854-1.115
	c-0.166-0.024-0.522-0.048-0.712-0.048c-0.07,0-0.166-0.095-0.166-0.166c0-0.118,0.096-0.166,0.332-0.166
	c0.949,0,2.35,0.048,2.469,0.048c0.213,0,1.969-0.048,2.609-0.048c1.328,0,2.8,0.118,3.891,0.878
	c0.522,0.38,1.447,1.353,1.447,2.752c0,1.495-0.616,2.942-2.563,4.604c1.709,2.136,3.156,3.963,4.367,5.22
	c1.114,1.14,1.803,1.329,2.324,1.4c0.404,0.071,0.617,0.071,0.736,0.071c0.118,0,0.189,0.095,0.189,0.166
	c0,0.118-0.119,0.166-0.498,0.166h-1.305c-1.188,0-1.709-0.119-2.23-0.403c-0.902-0.475-1.662-1.447-2.848-2.966
	c-0.878-1.092-1.803-2.396-2.254-2.942c-0.096-0.095-0.143-0.119-0.285-0.119l-2.657-0.047c-0.095,0-0.143,0.047-0.143,0.166v0.475
	c0,1.945,0,3.512,0.095,4.342c0.071,0.594,0.189,0.973,0.83,1.068c0.285,0.047,0.736,0.095,0.926,0.095
	c0.143,0,0.166,0.095,0.166,0.166c0,0.095-0.095,0.166-0.332,0.166c-1.139,0-2.467-0.071-2.563-0.071
	c-0.023,0-1.424,0.071-2.064,0.071c-0.213,0-0.332-0.048-0.332-0.166c0-0.071,0.047-0.166,0.166-0.166
	c0.189,0,0.451-0.048,0.641-0.095c0.403-0.096,0.451-0.475,0.546-1.068c0.118-0.83,0.118-2.42,0.118-4.365V31.131z M247.909,32.839
	c0,0.119,0.048,0.19,0.143,0.262c0.308,0.166,1.376,0.309,2.302,0.309c0.498,0,1.067-0.024,1.565-0.356
	c0.712-0.475,1.258-1.542,1.258-3.085c0-2.515-1.376-3.962-3.606-3.962c-0.617,0-1.281,0.071-1.495,0.118
	c-0.095,0.048-0.166,0.119-0.166,0.237V32.839z"/>
<path fill="#2D0351" d="M267.061,42.093c1.471,0.143,2.373,0.712,2.373,1.685c0,0.926-0.878,1.613-1.686,1.946
	c-0.641,0.284-1.399,0.427-1.85,0.427c-0.166,0-0.309-0.071-0.309-0.189c0-0.214,0.213-0.237,0.475-0.262
	c0.83-0.095,1.756-0.593,1.756-1.447c0-0.688-0.309-1.328-1.709-1.731c-0.261-0.071-0.355-0.119-0.355-0.214
	c0-0.071,0.095-0.166,0.309-0.332l1.518-1.234c-2.23-0.237-3.867-0.949-5.195-2.088c-2.041-1.756-2.539-4.058-2.539-5.979
	c0-1.353,0.498-3.701,2.349-5.505c1.258-1.21,3.155-2.159,6.359-2.159c0.83,0,2.017,0.048,3.037,0.214
	c0.782,0.119,1.447,0.309,2.136,0.332c0.213,0,0.261,0.095,0.261,0.214c0,0.166-0.048,0.403-0.095,1.139
	c-0.023,0.665-0.023,1.779-0.048,2.064c-0.024,0.309-0.118,0.427-0.237,0.427c-0.143,0-0.166-0.142-0.166-0.427
	c0-0.783-0.332-1.59-0.878-2.017c-0.735-0.617-2.254-1.115-4.104-1.115c-2.682,0-3.963,0.712-4.698,1.399
	c-1.542,1.424-1.874,3.228-1.874,5.268c0,3.868,3.061,7.309,7.521,7.309c1.565,0,2.609-0.119,3.439-0.949
	c0.451-0.451,0.736-1.306,0.807-1.685c0.048-0.214,0.072-0.285,0.215-0.285c0.094,0,0.189,0.143,0.189,0.285
	s-0.285,1.897-0.498,2.586c-0.119,0.38-0.166,0.451-0.522,0.594c-0.854,0.332-2.421,0.45-3.772,0.45c-0.285,0-0.546,0-0.807-0.023
	C267.986,41.215,267.227,41.927,267.061,42.093z"/>
<path fill="#2D0351" d="M282.036,25.697c0.261-0.664,0.355-0.783,0.498-0.783c0.214,0,0.284,0.285,0.499,0.735
	c0.379,0.854,3.725,9.183,5.006,12.244c0.76,1.803,1.328,2.063,1.779,2.206c0.309,0.095,0.617,0.119,0.83,0.119
	c0.119,0,0.262,0.047,0.262,0.166c0,0.118-0.237,0.166-0.475,0.166c-0.309,0-1.852,0-3.299-0.048
	c-0.402-0.023-0.734-0.023-0.734-0.142c0-0.096,0.047-0.096,0.142-0.143c0.118-0.048,0.333-0.214,0.19-0.546l-1.875-4.627
	c-0.047-0.095-0.071-0.118-0.189-0.118h-4.816c-0.096,0-0.166,0.047-0.214,0.166l-1.187,3.227c-0.189,0.498-0.309,0.996-0.309,1.353
	c0,0.403,0.355,0.546,0.712,0.546h0.19c0.166,0,0.213,0.071,0.213,0.166c0,0.118-0.119,0.166-0.309,0.166
	c-0.498,0-1.637-0.071-1.874-0.071c-0.214,0-1.258,0.071-2.112,0.071c-0.261,0-0.402-0.048-0.402-0.166
	c0-0.095,0.094-0.166,0.189-0.166c0.143,0,0.451-0.024,0.617-0.048c0.948-0.118,1.352-0.83,1.756-1.851L282.036,25.697z
	 M284.361,34.097c0.095,0,0.095-0.047,0.071-0.143l-2.064-5.528c-0.118-0.309-0.237-0.309-0.356,0l-1.945,5.528
	c-0.023,0.096,0,0.143,0.071,0.143H284.361z"/>
<path fill="#2D0351" d="M295.397,34.737c0,2.966,0.048,4.176,0.427,4.532c0.332,0.332,1.139,0.475,2.776,0.475
	c1.091,0,2.017-0.023,2.515-0.617c0.262-0.309,0.428-0.735,0.498-1.139c0.024-0.143,0.096-0.261,0.214-0.261
	c0.095,0,0.143,0.095,0.143,0.308c0,0.214-0.143,1.424-0.309,2.018c-0.142,0.475-0.214,0.545-1.329,0.545
	c-1.494,0-2.656-0.023-3.63-0.07c-0.949-0.024-1.661-0.048-2.278-0.048c-0.094,0-0.45,0-0.854,0.023
	c-0.428,0.024-0.878,0.048-1.21,0.048c-0.214,0-0.333-0.048-0.333-0.166c0-0.071,0.048-0.166,0.166-0.166
	c0.19,0,0.451-0.048,0.641-0.095c0.404-0.096,0.451-0.475,0.547-1.068c0.118-0.83,0.118-2.42,0.118-4.365v-3.56
	c0-3.132,0-3.701-0.048-4.342c-0.047-0.688-0.166-1.021-0.854-1.115c-0.166-0.024-0.522-0.048-0.712-0.048
	c-0.071,0-0.166-0.095-0.166-0.166c0-0.118,0.095-0.166,0.332-0.166c0.949,0,2.254,0.048,2.372,0.048
	c0.096,0,1.662-0.048,2.303-0.048c0.213,0,0.332,0.048,0.332,0.166c0,0.071-0.096,0.143-0.166,0.143
	c-0.143,0-0.451,0.023-0.688,0.047c-0.617,0.119-0.735,0.428-0.783,1.14c-0.023,0.641-0.023,1.21-0.023,4.342V34.737z"/>
<path fill="#333333" d="M87.629,50.6c0.199-0.549,0.266-0.648,0.365-0.648s0.166,0.083,0.365,0.599
	c0.25,0.631,2.859,7.494,3.873,10.02c0.598,1.479,1.08,1.745,1.428,1.845c0.25,0.083,0.499,0.1,0.666,0.1
	c0.1,0,0.166,0.017,0.166,0.1c0,0.1-0.15,0.133-0.333,0.133c-0.249,0-1.462,0-2.608-0.033c-0.316-0.017-0.499-0.017-0.499-0.116
	c0-0.066,0.05-0.1,0.116-0.116c0.1-0.033,0.199-0.183,0.1-0.449l-1.545-4.087c-0.033-0.067-0.066-0.101-0.149-0.101H86
	c-0.082,0-0.133,0.05-0.166,0.134l-0.996,2.94c-0.15,0.416-0.233,0.814-0.233,1.113c0,0.333,0.349,0.482,0.632,0.482h0.166
	c0.116,0,0.166,0.033,0.166,0.1c0,0.1-0.1,0.133-0.249,0.133c-0.399,0-1.113-0.05-1.296-0.05c-0.184,0-1.098,0.05-1.878,0.05
	c-0.216,0-0.315-0.033-0.315-0.133c0-0.066,0.066-0.1,0.148-0.1c0.117,0,0.35-0.017,0.482-0.033c0.765-0.1,1.097-0.731,1.396-1.563
	L87.629,50.6z M89.357,57.246c0.082,0,0.082-0.05,0.066-0.116l-1.579-4.486c-0.083-0.25-0.166-0.25-0.249,0l-1.463,4.486
	c-0.033,0.083,0,0.116,0.051,0.116H89.357z"/>
<path fill="#333333" d="M96.482,56.149c0-2.193,0-2.593-0.033-3.041c-0.033-0.481-0.115-0.715-0.598-0.781
	c-0.117-0.017-0.365-0.033-0.498-0.033c-0.051,0-0.117-0.066-0.117-0.116c0-0.083,0.066-0.116,0.232-0.116
	c0.665,0,1.612,0.033,1.695,0.033c0.166,0,1.097-0.033,1.961-0.033c1.463,0,4.138-0.133,5.865,1.612
	c0.731,0.73,1.43,1.91,1.43,3.589c0,1.778-0.765,3.141-1.578,3.972c-0.633,0.647-1.945,1.628-4.438,1.628
	c-0.631,0-1.412-0.05-2.044-0.083c-0.632-0.05-1.13-0.083-1.196-0.083c-0.033,0-0.299,0.017-0.598,0.017
	c-0.3,0.017-0.648,0.033-0.881,0.033c-0.15,0-0.232-0.033-0.232-0.116c0-0.05,0.033-0.116,0.115-0.116
	c0.133,0,0.316-0.033,0.449-0.066c0.282-0.066,0.316-0.333,0.383-0.748c0.082-0.581,0.082-1.695,0.082-3.058V56.149z M97.813,57.678
	c0,1.496,0,2.809,0.016,3.074c0.018,0.35,0.051,0.864,0.167,1.014c0.183,0.266,0.698,0.565,2.426,0.565
	c1.347,0,2.542-0.449,3.423-1.28c0.765-0.714,1.146-2.06,1.146-3.356c0-1.794-0.781-2.94-1.379-3.539
	c-1.379-1.396-2.99-1.579-4.736-1.579c-0.281,0-0.747,0.051-0.88,0.101c-0.134,0.05-0.183,0.116-0.183,0.282V57.678z"/>
<path fill="#333333" d="M113.129,60.901c0.848-1.894,2.759-6.713,3.074-7.727c0.066-0.216,0.133-0.415,0.133-0.531
	c0-0.117-0.049-0.25-0.199-0.3c-0.166-0.05-0.332-0.05-0.498-0.05c-0.084,0-0.166-0.05-0.166-0.116c0-0.083,0.1-0.116,0.332-0.116
	c0.582,0,1.246,0.033,1.43,0.033c0.082,0,0.714-0.033,1.146-0.033c0.148,0,0.232,0.033,0.232,0.1s-0.051,0.133-0.166,0.133
	c-0.1,0-0.433,0-0.698,0.166c-0.2,0.134-0.433,0.333-0.814,1.297c-0.166,0.398-0.881,2.094-1.628,3.821
	c-0.898,2.061-1.546,3.59-1.879,4.287c-0.398,0.848-0.48,1.063-0.631,1.063c-0.166,0-0.266-0.183-0.549-0.864l-3.589-8.657
	c-0.332-0.797-0.532-0.947-1.013-1.063c-0.233-0.05-0.482-0.05-0.565-0.05s-0.116-0.083-0.116-0.133c0-0.083,0.149-0.1,0.382-0.1
	c0.698,0,1.528,0.033,1.712,0.033c0.149,0,0.797-0.033,1.362-0.033c0.266,0,0.399,0.033,0.399,0.1s-0.051,0.133-0.15,0.133
	c-0.166,0-0.398,0.017-0.531,0.066c-0.15,0.066-0.166,0.149-0.166,0.25c0,0.183,0.182,0.614,0.398,1.18L113.129,60.901z"/>
<path fill="#333333" d="M124.825,51.862c3.29,0,5.782,2.011,5.782,5.301c0,3.157-2.343,5.766-5.865,5.766
	c-4.005,0-5.717-3.008-5.717-5.55C119.025,55.103,120.787,51.862,124.825,51.862z M125.157,62.348c1.313,0,3.955-0.698,3.955-4.786
	c0-3.39-2.061-5.168-4.37-5.168c-2.443,0-4.204,1.529-4.204,4.604C120.538,60.287,122.516,62.348,125.157,62.348z"/>
<path fill="#333333" d="M140.99,59.141c0-1.146-0.033-1.313-0.632-1.43c-0.116-0.017-0.366-0.033-0.499-0.033
	c-0.049,0-0.116-0.066-0.116-0.116c0-0.1,0.067-0.116,0.233-0.116c0.664,0,1.645,0.033,1.728,0.033c0.066,0,0.98-0.033,1.429-0.033
	c0.166,0,0.232,0.017,0.232,0.116c0,0.05-0.066,0.116-0.115,0.116c-0.1,0-0.199,0-0.366,0.033c-0.398,0.066-0.515,0.283-0.548,0.781
	c-0.018,0.448-0.018,0.864-0.018,1.462v1.579c0,0.648-0.016,0.665-0.199,0.765c-0.93,0.481-2.26,0.631-3.107,0.631
	c-1.113,0-3.189-0.133-4.818-1.512c-0.897-0.748-1.744-2.26-1.744-4.021c0-2.26,1.146-3.855,2.441-4.636
	c1.313-0.798,2.775-0.897,3.889-0.897c0.931,0,1.961,0.166,2.244,0.232c0.299,0.066,0.813,0.149,1.18,0.149
	c0.148,0,0.182,0.066,0.182,0.133c0,0.199-0.082,0.582-0.082,1.994c0,0.232-0.066,0.299-0.166,0.299c-0.084,0-0.1-0.083-0.1-0.216
	c-0.018-0.183-0.1-0.598-0.333-0.931c-0.366-0.531-1.479-1.097-3.373-1.097c-0.881,0-1.944,0.066-3.058,0.914
	c-0.848,0.648-1.445,1.911-1.445,3.557c0,1.993,1.029,3.423,1.545,3.904c1.163,1.08,2.393,1.479,3.738,1.479
	c0.516,0,1.197-0.05,1.579-0.267c0.183-0.1,0.3-0.166,0.3-0.432V59.141z"/>
<path fill="#333333" d="M148.945,52.344c0.184-0.465,0.25-0.548,0.35-0.548c0.149,0,0.199,0.199,0.349,0.515
	c0.267,0.599,2.608,6.431,3.507,8.574c0.531,1.263,0.93,1.446,1.246,1.546c0.216,0.066,0.432,0.083,0.581,0.083
	c0.083,0,0.183,0.033,0.183,0.116s-0.166,0.116-0.332,0.116c-0.216,0-1.296,0-2.31-0.033c-0.282-0.017-0.515-0.017-0.515-0.1
	c0-0.066,0.033-0.066,0.1-0.1c0.082-0.033,0.232-0.149,0.133-0.383l-1.313-3.24c-0.033-0.066-0.051-0.083-0.134-0.083h-3.373
	c-0.066,0-0.116,0.033-0.149,0.116l-0.831,2.261c-0.133,0.349-0.216,0.697-0.216,0.946c0,0.283,0.249,0.383,0.498,0.383h0.133
	c0.117,0,0.15,0.05,0.15,0.116c0,0.083-0.084,0.116-0.217,0.116c-0.349,0-1.146-0.05-1.313-0.05c-0.149,0-0.881,0.05-1.479,0.05
	c-0.184,0-0.283-0.033-0.283-0.116c0-0.066,0.066-0.116,0.133-0.116c0.101,0,0.316-0.017,0.433-0.033
	c0.665-0.083,0.947-0.582,1.229-1.296L148.945,52.344z M150.574,58.227c0.066,0,0.066-0.033,0.05-0.1l-1.446-3.872
	c-0.082-0.216-0.166-0.216-0.248,0l-1.363,3.872c-0.017,0.066,0,0.1,0.051,0.1H150.574z"/>
<path fill="#333333" d="M157.086,56.149c0-2.193,0-2.593-0.033-3.041c-0.033-0.481-0.117-0.715-0.599-0.781
	c-0.116-0.017-0.366-0.033-0.499-0.033c-0.049,0-0.116-0.066-0.116-0.116c0-0.083,0.067-0.116,0.233-0.116
	c0.664,0,1.611,0.033,1.694,0.033c0.166,0,1.097-0.033,1.961-0.033c1.462,0,4.138-0.133,5.866,1.612
	c0.73,0.73,1.429,1.91,1.429,3.589c0,1.778-0.765,3.141-1.579,3.972c-0.631,0.647-1.943,1.628-4.437,1.628
	c-0.632,0-1.412-0.05-2.044-0.083c-0.631-0.05-1.13-0.083-1.196-0.083c-0.033,0-0.299,0.017-0.599,0.017
	c-0.299,0.017-0.647,0.033-0.881,0.033c-0.148,0-0.232-0.033-0.232-0.116c0-0.05,0.033-0.116,0.117-0.116
	c0.133,0,0.315-0.033,0.448-0.066c0.282-0.066,0.315-0.333,0.382-0.748c0.084-0.581,0.084-1.695,0.084-3.058V56.149z
	 M158.414,57.678c0,1.496,0,2.809,0.018,3.074c0.016,0.35,0.049,0.864,0.166,1.014c0.183,0.266,0.697,0.565,2.426,0.565
	c1.346,0,2.543-0.449,3.424-1.28c0.764-0.714,1.146-2.06,1.146-3.356c0-1.794-0.781-2.94-1.38-3.539
	c-1.379-1.396-2.991-1.579-4.735-1.579c-0.283,0-0.748,0.051-0.881,0.101s-0.184,0.116-0.184,0.282V57.678z"/>
<path fill="#333333" d="M174.662,51.862c3.291,0,5.783,2.011,5.783,5.301c0,3.157-2.344,5.766-5.866,5.766
	c-4.005,0-5.716-3.008-5.716-5.55C168.863,55.103,170.625,51.862,174.662,51.862z M174.994,62.348c1.313,0,3.955-0.698,3.955-4.786
	c0-3.39-2.061-5.168-4.37-5.168c-2.442,0-4.204,1.529-4.204,4.604C170.375,60.287,172.353,62.348,174.994,62.348z"/>
<path fill="#333333" d="M182.719,62.547c-0.2-0.1-0.217-0.149-0.217-0.532c0-0.697,0.066-1.263,0.083-1.495
	c0-0.149,0.033-0.232,0.116-0.232c0.084,0,0.133,0.05,0.133,0.166s0,0.315,0.051,0.515c0.232,1.03,1.328,1.396,2.309,1.396
	c1.446,0,2.193-0.814,2.193-1.878c0-1.014-0.548-1.495-1.844-2.459l-0.664-0.499c-1.579-1.18-2.094-2.044-2.094-3.024
	c0-1.661,1.313-2.658,3.24-2.658c0.581,0,1.162,0.083,1.512,0.166c0.282,0.066,0.398,0.066,0.516,0.066
	c0.115,0,0.148,0.017,0.148,0.1c0,0.066-0.066,0.532-0.066,1.496c0,0.216-0.016,0.315-0.116,0.315c-0.1,0-0.116-0.066-0.133-0.183
	c-0.017-0.167-0.133-0.549-0.216-0.698c-0.1-0.166-0.582-0.698-1.895-0.698c-1.063,0-1.943,0.532-1.943,1.529
	c0,0.897,0.447,1.412,1.894,2.393l0.415,0.282c1.778,1.213,2.393,2.193,2.393,3.406c0,0.831-0.314,1.729-1.361,2.41
	c-0.615,0.398-1.529,0.498-2.326,0.498C184.164,62.929,183.316,62.829,182.719,62.547z"/>
<path fill="#333333" d="M200.826,50.6c0.199-0.549,0.267-0.648,0.366-0.648s0.166,0.083,0.365,0.599
	c0.249,0.631,2.858,7.494,3.872,10.02c0.598,1.479,1.08,1.745,1.429,1.845c0.249,0.083,0.499,0.1,0.665,0.1
	c0.1,0,0.166,0.017,0.166,0.1c0,0.1-0.149,0.133-0.332,0.133c-0.25,0-1.463,0-2.609-0.033c-0.315-0.017-0.498-0.017-0.498-0.116
	c0-0.066,0.05-0.1,0.116-0.116c0.1-0.033,0.199-0.183,0.1-0.449l-1.546-4.087c-0.033-0.067-0.066-0.101-0.148-0.101h-3.573
	c-0.083,0-0.133,0.05-0.166,0.134l-0.997,2.94c-0.149,0.416-0.232,0.814-0.232,1.113c0,0.333,0.349,0.482,0.631,0.482h0.166
	c0.117,0,0.166,0.033,0.166,0.1c0,0.1-0.1,0.133-0.248,0.133c-0.399,0-1.113-0.05-1.297-0.05c-0.183,0-1.097,0.05-1.877,0.05
	c-0.217,0-0.316-0.033-0.316-0.133c0-0.066,0.066-0.1,0.149-0.1c0.116,0,0.349-0.017,0.481-0.033c0.766-0.1,1.098-0.731,1.396-1.563
	L200.826,50.6z M202.555,57.246c0.083,0,0.083-0.05,0.066-0.116l-1.578-4.486c-0.084-0.25-0.166-0.25-0.25,0l-1.462,4.486
	c-0.033,0.083,0,0.116,0.05,0.116H202.555z"/>
<path fill="#333333" d="M208.6,62.547c-0.199-0.1-0.216-0.149-0.216-0.532c0-0.697,0.066-1.263,0.083-1.495
	c0-0.149,0.033-0.232,0.116-0.232s0.134,0.05,0.134,0.166s0,0.315,0.049,0.515c0.232,1.03,1.33,1.396,2.311,1.396
	c1.445,0,2.193-0.814,2.193-1.878c0-1.014-0.549-1.495-1.845-2.459l-0.665-0.499c-1.578-1.18-2.094-2.044-2.094-3.024
	c0-1.661,1.313-2.658,3.24-2.658c0.582,0,1.164,0.083,1.513,0.166c0.282,0.066,0.398,0.066,0.515,0.066c0.117,0,0.15,0.017,0.15,0.1
	c0,0.066-0.066,0.532-0.066,1.496c0,0.216-0.018,0.315-0.117,0.315s-0.116-0.066-0.133-0.183c-0.017-0.167-0.133-0.549-0.216-0.698
	c-0.1-0.166-0.581-0.698-1.895-0.698c-1.063,0-1.944,0.532-1.944,1.529c0,0.897,0.449,1.412,1.895,2.393l0.416,0.282
	c1.777,1.213,2.393,2.193,2.393,3.406c0,0.831-0.316,1.729-1.363,2.41c-0.614,0.398-1.528,0.498-2.326,0.498
	C210.045,62.929,209.198,62.829,208.6,62.547z"/>
<path fill="#333333" d="M217.305,62.547c-0.199-0.1-0.217-0.149-0.217-0.532c0-0.697,0.066-1.263,0.084-1.495
	c0-0.149,0.033-0.232,0.116-0.232s0.133,0.05,0.133,0.166s0,0.315,0.05,0.515c0.232,1.03,1.329,1.396,2.31,1.396
	c1.446,0,2.193-0.814,2.193-1.878c0-1.014-0.548-1.495-1.845-2.459l-0.664-0.499c-1.578-1.18-2.094-2.044-2.094-3.024
	c0-1.661,1.313-2.658,3.24-2.658c0.582,0,1.163,0.083,1.512,0.166c0.283,0.066,0.398,0.066,0.516,0.066
	c0.116,0,0.149,0.017,0.149,0.1c0,0.066-0.066,0.532-0.066,1.496c0,0.216-0.017,0.315-0.116,0.315s-0.117-0.066-0.133-0.183
	c-0.018-0.167-0.133-0.549-0.217-0.698c-0.1-0.166-0.581-0.698-1.895-0.698c-1.063,0-1.943,0.532-1.943,1.529
	c0,0.897,0.448,1.412,1.895,2.393l0.415,0.282c1.778,1.213,2.393,2.193,2.393,3.406c0,0.831-0.315,1.729-1.362,2.41
	c-0.615,0.398-1.529,0.498-2.326,0.498C218.75,62.929,217.902,62.829,217.305,62.547z"/>
<path fill="#333333" d="M231.377,51.862c3.29,0,5.782,2.011,5.782,5.301c0,3.157-2.343,5.766-5.866,5.766
	c-4.004,0-5.715-3.008-5.715-5.55C225.578,55.103,227.339,51.862,231.377,51.862z M231.709,62.348c1.313,0,3.955-0.698,3.955-4.786
	c0-3.39-2.061-5.168-4.371-5.168c-2.441,0-4.203,1.529-4.203,4.604C227.09,60.287,229.066,62.348,231.709,62.348z"/>
<path fill="#333333" d="M240.778,61.417C239.35,60.188,239,58.575,239,57.229c0-0.947,0.35-2.593,1.646-3.855
	c0.88-0.848,2.21-1.512,4.453-1.512c0.581,0,1.413,0.05,2.127,0.166c0.548,0.1,1.014,0.199,1.495,0.216
	c0.15,0,0.184,0.066,0.184,0.149c0,0.116-0.033,0.283-0.066,0.798c-0.018,0.465-0.018,1.246-0.033,1.445
	c-0.018,0.217-0.084,0.3-0.166,0.3c-0.1,0-0.117-0.1-0.117-0.3c0-0.548-0.232-1.113-0.615-1.412
	c-0.515-0.432-1.578-0.781-2.874-0.781c-1.878,0-2.774,0.499-3.29,0.98c-1.08,0.997-1.313,2.26-1.313,3.689
	c0,2.708,2.143,5.118,5.268,5.118c1.096,0,1.828-0.084,2.409-0.665c0.315-0.315,0.515-0.914,0.565-1.18
	c0.033-0.149,0.049-0.199,0.148-0.199c0.066,0,0.133,0.1,0.133,0.199s-0.199,1.329-0.348,1.812
	c-0.084,0.266-0.117,0.315-0.366,0.415c-0.599,0.232-1.694,0.315-2.642,0.315C243.404,62.929,241.925,62.414,240.778,61.417z"/>
<path fill="#333333" d="M253.753,58.642c0,1.362,0,2.477,0.066,3.058c0.05,0.415,0.101,0.682,0.532,0.748
	c0.216,0.033,0.531,0.066,0.664,0.066c0.084,0,0.117,0.066,0.117,0.116c0,0.066-0.066,0.116-0.233,0.116
	c-0.813,0-1.761-0.05-1.827-0.05c-0.084,0-0.998,0.05-1.446,0.05c-0.149,0-0.232-0.033-0.232-0.116c0-0.05,0.033-0.116,0.116-0.116
	c0.133,0,0.316-0.033,0.449-0.066c0.282-0.066,0.332-0.333,0.382-0.748c0.066-0.581,0.083-1.695,0.083-3.058v-2.492
	c0-2.193,0-2.593-0.033-3.041c-0.033-0.481-0.149-0.698-0.465-0.765c-0.166-0.033-0.35-0.05-0.449-0.05
	c-0.066,0-0.116-0.066-0.116-0.116c0-0.083,0.066-0.116,0.232-0.116c0.481,0,1.396,0.033,1.479,0.033
	c0.066,0,1.014-0.033,1.462-0.033c0.166,0,0.232,0.033,0.232,0.116c0,0.05-0.066,0.116-0.116,0.116c-0.1,0-0.199,0-0.365,0.033
	c-0.398,0.083-0.482,0.283-0.516,0.781c-0.017,0.448-0.017,0.848-0.017,3.041V58.642z"/>
<path fill="#333333" d="M261.112,52.344c0.183-0.465,0.249-0.548,0.349-0.548c0.15,0,0.199,0.199,0.35,0.515
	c0.266,0.599,2.608,6.431,3.506,8.574c0.531,1.263,0.931,1.446,1.246,1.546c0.217,0.066,0.432,0.083,0.582,0.083
	c0.083,0,0.183,0.033,0.183,0.116s-0.167,0.116-0.333,0.116c-0.215,0-1.295,0-2.309-0.033c-0.283-0.017-0.516-0.017-0.516-0.1
	c0-0.066,0.033-0.066,0.1-0.1c0.083-0.033,0.232-0.149,0.133-0.383l-1.313-3.24c-0.033-0.066-0.05-0.083-0.133-0.083h-3.373
	c-0.066,0-0.117,0.033-0.15,0.116l-0.83,2.261c-0.133,0.349-0.217,0.697-0.217,0.946c0,0.283,0.25,0.383,0.499,0.383h0.133
	c0.116,0,0.149,0.05,0.149,0.116c0,0.083-0.083,0.116-0.216,0.116c-0.349,0-1.146-0.05-1.313-0.05c-0.149,0-0.881,0.05-1.479,0.05
	c-0.183,0-0.282-0.033-0.282-0.116c0-0.066,0.066-0.116,0.133-0.116c0.101,0,0.315-0.017,0.433-0.033
	c0.664-0.083,0.947-0.582,1.229-1.296L261.112,52.344z M262.74,58.227c0.066,0,0.066-0.033,0.051-0.1l-1.446-3.872
	c-0.083-0.216-0.166-0.216-0.249,0l-1.363,3.872c-0.016,0.066,0,0.1,0.051,0.1H262.74z"/>
<path fill="#333333" d="M269.252,56.149c0-2.193,0-2.593-0.033-3.041c-0.033-0.481-0.116-0.715-0.598-0.781
	c-0.117-0.017-0.366-0.033-0.499-0.033c-0.05,0-0.116-0.066-0.116-0.116c0-0.083,0.066-0.116,0.232-0.116
	c0.664,0,1.611,0.033,1.695,0.033c0.166,0,1.096-0.033,1.961-0.033c1.462,0,4.137-0.133,5.865,1.612c0.73,0.73,1.43,1.91,1.43,3.589
	c0,1.778-0.766,3.141-1.579,3.972c-0.632,0.647-1.944,1.628-4.437,1.628c-0.632,0-1.412-0.05-2.045-0.083
	c-0.631-0.05-1.129-0.083-1.195-0.083c-0.033,0-0.299,0.017-0.599,0.017c-0.3,0.017-0.647,0.033-0.881,0.033
	c-0.149,0-0.232-0.033-0.232-0.116c0-0.05,0.033-0.116,0.116-0.116c0.133,0,0.316-0.033,0.449-0.066
	c0.282-0.066,0.315-0.333,0.382-0.748c0.083-0.581,0.083-1.695,0.083-3.058V56.149z M270.581,57.678c0,1.496,0,2.809,0.017,3.074
	c0.017,0.35,0.05,0.864,0.166,1.014c0.184,0.266,0.698,0.565,2.426,0.565c1.347,0,2.543-0.449,3.424-1.28
	c0.764-0.714,1.146-2.06,1.146-3.356c0-1.794-0.781-2.94-1.379-3.539c-1.379-1.396-2.991-1.579-4.736-1.579
	c-0.282,0-0.748,0.051-0.881,0.101s-0.183,0.116-0.183,0.282V57.678z"/>
<path fill="#333333" d="M286.829,51.862c3.29,0,5.782,2.011,5.782,5.301c0,3.157-2.343,5.766-5.865,5.766
	c-4.005,0-5.717-3.008-5.717-5.55C281.029,55.103,282.791,51.862,286.829,51.862z M287.161,62.348c1.313,0,3.955-0.698,3.955-4.786
	c0-3.39-2.061-5.168-4.37-5.168c-2.443,0-4.204,1.529-4.204,4.604C282.542,60.287,284.52,62.348,287.161,62.348z"/>
<path fill="#333333" d="M294.885,62.547c-0.199-0.1-0.216-0.149-0.216-0.532c0-0.697,0.066-1.263,0.083-1.495
	c0-0.149,0.033-0.232,0.116-0.232s0.134,0.05,0.134,0.166s0,0.315,0.049,0.515c0.232,1.03,1.33,1.396,2.311,1.396
	c1.445,0,2.193-0.814,2.193-1.878c0-1.014-0.549-1.495-1.845-2.459l-0.665-0.499c-1.578-1.18-2.094-2.044-2.094-3.024
	c0-1.661,1.313-2.658,3.24-2.658c0.582,0,1.164,0.083,1.513,0.166c0.282,0.066,0.398,0.066,0.515,0.066c0.117,0,0.15,0.017,0.15,0.1
	c0,0.066-0.066,0.532-0.066,1.496c0,0.216-0.018,0.315-0.117,0.315s-0.116-0.066-0.133-0.183c-0.017-0.167-0.133-0.549-0.216-0.698
	c-0.1-0.166-0.581-0.698-1.895-0.698c-1.063,0-1.944,0.532-1.944,1.529c0,0.897,0.449,1.412,1.895,2.393l0.416,0.282
	c1.777,1.213,2.393,2.193,2.393,3.406c0,0.831-0.316,1.729-1.363,2.41c-0.614,0.398-1.528,0.498-2.326,0.498
	C296.33,62.929,295.483,62.829,294.885,62.547z"/>
<line stroke="#000000" stroke-width="2" stroke-miterlimit="10" x1="81.777" y1="47.681" x2="301.303" y2="47.681"/>
</svg>
